<mxfile host="65bd71144e" pages="5">
    <diagram id="WakIzC5jYpL8hw5QqzSE" name="Actions">
        <mxGraphModel dx="874" dy="770" grid="1" gridSize="10" guides="1" tooltips="1" connect="1" arrows="1" fold="1" page="1" pageScale="1" pageWidth="850" pageHeight="1100" math="0" shadow="0">
            <root>
                <mxCell id="7M6kMEI2blETjhOHuay6-0"/>
                <mxCell id="7M6kMEI2blETjhOHuay6-1" parent="7M6kMEI2blETjhOHuay6-0"/>
                <mxCell id="7Wtj31eXRwQQAr-mpvwS-15" value="" style="edgeStyle=orthogonalEdgeStyle;rounded=0;orthogonalLoop=1;jettySize=auto;html=1;" parent="7M6kMEI2blETjhOHuay6-1" source="vNF4HLkbXYg-GIf7ipUe-2" target="7Wtj31eXRwQQAr-mpvwS-8" edge="1">
                    <mxGeometry relative="1" as="geometry"/>
                </mxCell>
                <mxCell id="vNF4HLkbXYg-GIf7ipUe-2" value="" style="ellipse;html=1;shape=startState;fillColor=#000000;strokeColor=#ff0000;" parent="7M6kMEI2blETjhOHuay6-1" vertex="1">
                    <mxGeometry x="100" y="30" width="30" height="30" as="geometry"/>
                </mxCell>
                <mxCell id="7Wtj31eXRwQQAr-mpvwS-14" value="" style="edgeStyle=orthogonalEdgeStyle;rounded=0;orthogonalLoop=1;jettySize=auto;html=1;" parent="7M6kMEI2blETjhOHuay6-1" source="yH7qjusNebaA9A5b9lxM-0" target="40cCWDhYQmR--o5r0KP1-1" edge="1">
                    <mxGeometry relative="1" as="geometry"/>
                </mxCell>
                <mxCell id="yH7qjusNebaA9A5b9lxM-0" value="Show catalog" style="html=1;" parent="7M6kMEI2blETjhOHuay6-1" vertex="1">
                    <mxGeometry x="40" y="190" width="147.5" height="50" as="geometry"/>
                </mxCell>
                <mxCell id="7Wtj31eXRwQQAr-mpvwS-18" value="" style="edgeStyle=orthogonalEdgeStyle;rounded=0;orthogonalLoop=1;jettySize=auto;html=1;" parent="7M6kMEI2blETjhOHuay6-1" source="40cCWDhYQmR--o5r0KP1-1" target="7Wtj31eXRwQQAr-mpvwS-17" edge="1">
                    <mxGeometry relative="1" as="geometry"/>
                </mxCell>
                <mxCell id="40cCWDhYQmR--o5r0KP1-1" value="&lt;div&gt;Make order&lt;/div&gt;" style="html=1;" parent="7M6kMEI2blETjhOHuay6-1" vertex="1">
                    <mxGeometry x="42.5" y="280" width="147.5" height="50" as="geometry"/>
                </mxCell>
                <mxCell id="7Wtj31eXRwQQAr-mpvwS-13" style="edgeStyle=orthogonalEdgeStyle;rounded=0;orthogonalLoop=1;jettySize=auto;html=1;" parent="7M6kMEI2blETjhOHuay6-1" source="7Wtj31eXRwQQAr-mpvwS-3" target="yH7qjusNebaA9A5b9lxM-0" edge="1">
                    <mxGeometry relative="1" as="geometry"/>
                </mxCell>
                <mxCell id="7Wtj31eXRwQQAr-mpvwS-3" value="login" style="html=1;" parent="7M6kMEI2blETjhOHuay6-1" vertex="1">
                    <mxGeometry x="385" y="230" width="110" height="50" as="geometry"/>
                </mxCell>
                <mxCell id="7Wtj31eXRwQQAr-mpvwS-12" style="edgeStyle=orthogonalEdgeStyle;rounded=0;orthogonalLoop=1;jettySize=auto;html=1;entryX=1;entryY=0.75;entryDx=0;entryDy=0;" parent="7M6kMEI2blETjhOHuay6-1" source="7Wtj31eXRwQQAr-mpvwS-4" target="7Wtj31eXRwQQAr-mpvwS-3" edge="1">
                    <mxGeometry relative="1" as="geometry">
                        <Array as="points">
                            <mxPoint x="645" y="268"/>
                            <mxPoint x="560" y="268"/>
                        </Array>
                    </mxGeometry>
                </mxCell>
                <mxCell id="7Wtj31eXRwQQAr-mpvwS-4" value="registration" style="html=1;" parent="7M6kMEI2blETjhOHuay6-1" vertex="1">
                    <mxGeometry x="590" y="100" width="110" height="50" as="geometry"/>
                </mxCell>
                <mxCell id="7Wtj31eXRwQQAr-mpvwS-6" value="&lt;div&gt;no&lt;/div&gt;" style="text;html=1;resizable=0;autosize=1;align=center;verticalAlign=middle;points=[];fillColor=none;strokeColor=none;rounded=0;" parent="7M6kMEI2blETjhOHuay6-1" vertex="1">
                    <mxGeometry x="70" y="160" width="30" height="20" as="geometry"/>
                </mxCell>
                <mxCell id="7Wtj31eXRwQQAr-mpvwS-10" value="" style="edgeStyle=orthogonalEdgeStyle;rounded=0;orthogonalLoop=1;jettySize=auto;html=1;" parent="7M6kMEI2blETjhOHuay6-1" source="7Wtj31eXRwQQAr-mpvwS-7" target="7Wtj31eXRwQQAr-mpvwS-3" edge="1">
                    <mxGeometry relative="1" as="geometry"/>
                </mxCell>
                <mxCell id="6aYrh20NkhvTu2CRjjHs-5" style="edgeStyle=orthogonalEdgeStyle;rounded=0;orthogonalLoop=1;jettySize=auto;html=1;entryX=0;entryY=0.5;entryDx=0;entryDy=0;" parent="7M6kMEI2blETjhOHuay6-1" source="7Wtj31eXRwQQAr-mpvwS-7" target="7Wtj31eXRwQQAr-mpvwS-4" edge="1">
                    <mxGeometry relative="1" as="geometry"/>
                </mxCell>
                <mxCell id="7Wtj31eXRwQQAr-mpvwS-7" value="Customer &lt;br&gt;already registered?" style="rhombus;whiteSpace=wrap;html=1;" parent="7M6kMEI2blETjhOHuay6-1" vertex="1">
                    <mxGeometry x="350" y="70" width="150" height="100" as="geometry"/>
                </mxCell>
                <mxCell id="6aYrh20NkhvTu2CRjjHs-1" style="edgeStyle=orthogonalEdgeStyle;rounded=0;orthogonalLoop=1;jettySize=auto;html=1;exitX=1;exitY=0.5;exitDx=0;exitDy=0;" parent="7M6kMEI2blETjhOHuay6-1" source="7Wtj31eXRwQQAr-mpvwS-8" edge="1">
                    <mxGeometry relative="1" as="geometry">
                        <mxPoint x="350" y="120" as="targetPoint"/>
                    </mxGeometry>
                </mxCell>
                <mxCell id="6aYrh20NkhvTu2CRjjHs-3" style="edgeStyle=orthogonalEdgeStyle;rounded=0;orthogonalLoop=1;jettySize=auto;html=1;exitX=0.5;exitY=1;exitDx=0;exitDy=0;entryX=0.5;entryY=0;entryDx=0;entryDy=0;" parent="7M6kMEI2blETjhOHuay6-1" source="7Wtj31eXRwQQAr-mpvwS-8" target="yH7qjusNebaA9A5b9lxM-0" edge="1">
                    <mxGeometry relative="1" as="geometry"/>
                </mxCell>
                <mxCell id="7Wtj31eXRwQQAr-mpvwS-8" value="Customer &lt;br&gt;want to login?" style="rhombus;whiteSpace=wrap;html=1;" parent="7M6kMEI2blETjhOHuay6-1" vertex="1">
                    <mxGeometry x="40" y="80" width="150" height="80" as="geometry"/>
                </mxCell>
                <mxCell id="7Wtj31eXRwQQAr-mpvwS-25" style="edgeStyle=orthogonalEdgeStyle;rounded=0;orthogonalLoop=1;jettySize=auto;html=1;exitX=0.5;exitY=1;exitDx=0;exitDy=0;" parent="7M6kMEI2blETjhOHuay6-1" source="7Wtj31eXRwQQAr-mpvwS-17" target="7Wtj31eXRwQQAr-mpvwS-24" edge="1">
                    <mxGeometry relative="1" as="geometry"/>
                </mxCell>
                <mxCell id="7Wtj31eXRwQQAr-mpvwS-28" value="" style="edgeStyle=orthogonalEdgeStyle;rounded=0;orthogonalLoop=1;jettySize=auto;html=1;" parent="7M6kMEI2blETjhOHuay6-1" source="7Wtj31eXRwQQAr-mpvwS-17" target="7Wtj31eXRwQQAr-mpvwS-27" edge="1">
                    <mxGeometry relative="1" as="geometry"/>
                </mxCell>
                <mxCell id="7Wtj31eXRwQQAr-mpvwS-17" value="Order&lt;br&gt;approved" style="rhombus;whiteSpace=wrap;html=1;" parent="7M6kMEI2blETjhOHuay6-1" vertex="1">
                    <mxGeometry x="35" y="370" width="165" height="80" as="geometry"/>
                </mxCell>
                <mxCell id="7Wtj31eXRwQQAr-mpvwS-19" value="yes" style="text;html=1;resizable=0;autosize=1;align=center;verticalAlign=middle;points=[];fillColor=none;strokeColor=none;rounded=0;" parent="7M6kMEI2blETjhOHuay6-1" vertex="1">
                    <mxGeometry x="220" y="100" width="30" height="20" as="geometry"/>
                </mxCell>
                <mxCell id="7Wtj31eXRwQQAr-mpvwS-20" value="&lt;div&gt;no&lt;/div&gt;" style="text;html=1;resizable=0;autosize=1;align=center;verticalAlign=middle;points=[];fillColor=none;strokeColor=none;rounded=0;" parent="7M6kMEI2blETjhOHuay6-1" vertex="1">
                    <mxGeometry x="520" y="80" width="30" height="20" as="geometry"/>
                </mxCell>
                <mxCell id="7Wtj31eXRwQQAr-mpvwS-21" value="yes" style="text;html=1;resizable=0;autosize=1;align=center;verticalAlign=middle;points=[];fillColor=none;strokeColor=none;rounded=0;" parent="7M6kMEI2blETjhOHuay6-1" vertex="1">
                    <mxGeometry x="460" y="160" width="30" height="20" as="geometry"/>
                </mxCell>
                <mxCell id="7Wtj31eXRwQQAr-mpvwS-31" value="" style="edgeStyle=orthogonalEdgeStyle;rounded=0;orthogonalLoop=1;jettySize=auto;html=1;" parent="7M6kMEI2blETjhOHuay6-1" source="7Wtj31eXRwQQAr-mpvwS-24" target="7Wtj31eXRwQQAr-mpvwS-30" edge="1">
                    <mxGeometry relative="1" as="geometry"/>
                </mxCell>
                <mxCell id="7Wtj31eXRwQQAr-mpvwS-24" value="&lt;span class=&quot;VIiyi&quot; lang=&quot;en&quot;&gt;&lt;span class=&quot;JLqJ4b ChMk0b&quot;&gt;&lt;span&gt;Prepare order&lt;/span&gt;&lt;/span&gt;&lt;/span&gt; " style="whiteSpace=wrap;html=1;" parent="7M6kMEI2blETjhOHuay6-1" vertex="1">
                    <mxGeometry x="58.75" y="500" width="120" height="60" as="geometry"/>
                </mxCell>
                <mxCell id="7Wtj31eXRwQQAr-mpvwS-26" value="yes" style="text;html=1;resizable=0;autosize=1;align=center;verticalAlign=middle;points=[];fillColor=none;strokeColor=none;rounded=0;" parent="7M6kMEI2blETjhOHuay6-1" vertex="1">
                    <mxGeometry x="70" y="450" width="30" height="20" as="geometry"/>
                </mxCell>
                <mxCell id="7Wtj31eXRwQQAr-mpvwS-27" value="notify customer" style="whiteSpace=wrap;html=1;" parent="7M6kMEI2blETjhOHuay6-1" vertex="1">
                    <mxGeometry x="290" y="380" width="120" height="60" as="geometry"/>
                </mxCell>
                <mxCell id="7Wtj31eXRwQQAr-mpvwS-29" value="&lt;div&gt;no&lt;/div&gt;" style="text;html=1;resizable=0;autosize=1;align=center;verticalAlign=middle;points=[];fillColor=none;strokeColor=none;rounded=0;" parent="7M6kMEI2blETjhOHuay6-1" vertex="1">
                    <mxGeometry x="180" y="370" width="30" height="20" as="geometry"/>
                </mxCell>
                <mxCell id="7Wtj31eXRwQQAr-mpvwS-34" style="edgeStyle=orthogonalEdgeStyle;rounded=0;orthogonalLoop=1;jettySize=auto;html=1;exitX=1;exitY=0.5;exitDx=0;exitDy=0;entryX=0;entryY=1;entryDx=0;entryDy=0;" parent="7M6kMEI2blETjhOHuay6-1" source="7Wtj31eXRwQQAr-mpvwS-30" target="7Wtj31eXRwQQAr-mpvwS-27" edge="1">
                    <mxGeometry relative="1" as="geometry"/>
                </mxCell>
                <mxCell id="7Wtj31eXRwQQAr-mpvwS-36" style="edgeStyle=orthogonalEdgeStyle;rounded=0;orthogonalLoop=1;jettySize=auto;html=1;exitX=0.5;exitY=1;exitDx=0;exitDy=0;" parent="7M6kMEI2blETjhOHuay6-1" source="7Wtj31eXRwQQAr-mpvwS-30" target="7Wtj31eXRwQQAr-mpvwS-35" edge="1">
                    <mxGeometry relative="1" as="geometry"/>
                </mxCell>
                <mxCell id="7Wtj31eXRwQQAr-mpvwS-30" value="Order&lt;br&gt;prepared?" style="rhombus;whiteSpace=wrap;html=1;" parent="7M6kMEI2blETjhOHuay6-1" vertex="1">
                    <mxGeometry x="48.75" y="600" width="140" height="70" as="geometry"/>
                </mxCell>
                <mxCell id="7Wtj31eXRwQQAr-mpvwS-33" value="&lt;div&gt;no&lt;/div&gt;" style="text;html=1;resizable=0;autosize=1;align=center;verticalAlign=middle;points=[];fillColor=none;strokeColor=none;rounded=0;" parent="7M6kMEI2blETjhOHuay6-1" vertex="1">
                    <mxGeometry x="187.5" y="610" width="30" height="20" as="geometry"/>
                </mxCell>
                <mxCell id="7Wtj31eXRwQQAr-mpvwS-40" value="" style="edgeStyle=orthogonalEdgeStyle;rounded=0;orthogonalLoop=1;jettySize=auto;html=1;" parent="7M6kMEI2blETjhOHuay6-1" source="7Wtj31eXRwQQAr-mpvwS-35" target="7Wtj31eXRwQQAr-mpvwS-39" edge="1">
                    <mxGeometry relative="1" as="geometry"/>
                </mxCell>
                <mxCell id="7Wtj31eXRwQQAr-mpvwS-45" value="" style="edgeStyle=orthogonalEdgeStyle;rounded=0;orthogonalLoop=1;jettySize=auto;html=1;" parent="7M6kMEI2blETjhOHuay6-1" source="7Wtj31eXRwQQAr-mpvwS-35" edge="1">
                    <mxGeometry relative="1" as="geometry">
                        <mxPoint x="111" y="850" as="targetPoint"/>
                    </mxGeometry>
                </mxCell>
                <mxCell id="7Wtj31eXRwQQAr-mpvwS-35" value="Order need&lt;br&gt; delivery?" style="rhombus;whiteSpace=wrap;html=1;" parent="7M6kMEI2blETjhOHuay6-1" vertex="1">
                    <mxGeometry x="40" y="730" width="160" height="70" as="geometry"/>
                </mxCell>
                <mxCell id="7Wtj31eXRwQQAr-mpvwS-37" value="yes" style="text;html=1;resizable=0;autosize=1;align=center;verticalAlign=middle;points=[];fillColor=none;strokeColor=none;rounded=0;" parent="7M6kMEI2blETjhOHuay6-1" vertex="1">
                    <mxGeometry x="80" y="680" width="30" height="20" as="geometry"/>
                </mxCell>
                <mxCell id="7Wtj31eXRwQQAr-mpvwS-38" value="yes" style="text;html=1;resizable=0;autosize=1;align=center;verticalAlign=middle;points=[];fillColor=none;strokeColor=none;rounded=0;" parent="7M6kMEI2blETjhOHuay6-1" vertex="1">
                    <mxGeometry x="70" y="810" width="30" height="20" as="geometry"/>
                </mxCell>
                <mxCell id="7Wtj31eXRwQQAr-mpvwS-50" value="" style="edgeStyle=orthogonalEdgeStyle;rounded=0;orthogonalLoop=1;jettySize=auto;html=1;" parent="7M6kMEI2blETjhOHuay6-1" source="7Wtj31eXRwQQAr-mpvwS-39" target="7Wtj31eXRwQQAr-mpvwS-49" edge="1">
                    <mxGeometry relative="1" as="geometry"/>
                </mxCell>
                <mxCell id="7Wtj31eXRwQQAr-mpvwS-39" value="payment" style="whiteSpace=wrap;html=1;" parent="7M6kMEI2blETjhOHuay6-1" vertex="1">
                    <mxGeometry x="365" y="740" width="120" height="60" as="geometry"/>
                </mxCell>
                <mxCell id="7Wtj31eXRwQQAr-mpvwS-41" value="&lt;div&gt;no&lt;/div&gt;" style="text;html=1;resizable=0;autosize=1;align=center;verticalAlign=middle;points=[];fillColor=none;strokeColor=none;rounded=0;" parent="7M6kMEI2blETjhOHuay6-1" vertex="1">
                    <mxGeometry x="200" y="740" width="30" height="20" as="geometry"/>
                </mxCell>
                <mxCell id="7Wtj31eXRwQQAr-mpvwS-43" style="edgeStyle=orthogonalEdgeStyle;rounded=0;orthogonalLoop=1;jettySize=auto;html=1;exitX=1;exitY=0.5;exitDx=0;exitDy=0;entryX=0.25;entryY=1;entryDx=0;entryDy=0;" parent="7M6kMEI2blETjhOHuay6-1" source="7Wtj31eXRwQQAr-mpvwS-42" target="7Wtj31eXRwQQAr-mpvwS-27" edge="1">
                    <mxGeometry relative="1" as="geometry"/>
                </mxCell>
                <mxCell id="6aYrh20NkhvTu2CRjjHs-6" style="edgeStyle=orthogonalEdgeStyle;rounded=0;orthogonalLoop=1;jettySize=auto;html=1;entryX=0.75;entryY=1;entryDx=0;entryDy=0;" parent="7M6kMEI2blETjhOHuay6-1" source="7Wtj31eXRwQQAr-mpvwS-42" target="7Wtj31eXRwQQAr-mpvwS-39" edge="1">
                    <mxGeometry relative="1" as="geometry">
                        <Array as="points">
                            <mxPoint x="119" y="1030"/>
                            <mxPoint x="455" y="1030"/>
                        </Array>
                    </mxGeometry>
                </mxCell>
                <mxCell id="7Wtj31eXRwQQAr-mpvwS-42" value="Order&lt;br&gt;delivered?" style="rhombus;whiteSpace=wrap;html=1;" parent="7M6kMEI2blETjhOHuay6-1" vertex="1">
                    <mxGeometry x="50" y="940" width="137.5" height="70" as="geometry"/>
                </mxCell>
                <mxCell id="7Wtj31eXRwQQAr-mpvwS-44" value="&lt;div&gt;no&lt;/div&gt;" style="text;html=1;resizable=0;autosize=1;align=center;verticalAlign=middle;points=[];fillColor=none;strokeColor=none;rounded=0;" parent="7M6kMEI2blETjhOHuay6-1" vertex="1">
                    <mxGeometry x="210" y="960" width="30" height="20" as="geometry"/>
                </mxCell>
                <mxCell id="7Wtj31eXRwQQAr-mpvwS-47" value="yes" style="text;html=1;resizable=0;autosize=1;align=center;verticalAlign=middle;points=[];fillColor=none;strokeColor=none;rounded=0;rotation=0;" parent="7M6kMEI2blETjhOHuay6-1" vertex="1">
                    <mxGeometry x="52.5" y="1010" width="30" height="20" as="geometry"/>
                </mxCell>
                <mxCell id="7Wtj31eXRwQQAr-mpvwS-49" value="" style="ellipse;html=1;shape=endState;fillColor=#000000;strokeColor=#ff0000;" parent="7M6kMEI2blETjhOHuay6-1" vertex="1">
                    <mxGeometry x="520" y="755" width="30" height="30" as="geometry"/>
                </mxCell>
                <mxCell id="6tS9xZkijp9Pk4Wm7AW0-2" style="edgeStyle=orthogonalEdgeStyle;rounded=0;orthogonalLoop=1;jettySize=auto;html=1;entryX=0.5;entryY=0;entryDx=0;entryDy=0;" parent="7M6kMEI2blETjhOHuay6-1" source="6tS9xZkijp9Pk4Wm7AW0-1" target="7Wtj31eXRwQQAr-mpvwS-42" edge="1">
                    <mxGeometry relative="1" as="geometry"/>
                </mxCell>
                <mxCell id="6tS9xZkijp9Pk4Wm7AW0-1" value="Delivery" style="whiteSpace=wrap;html=1;" parent="7M6kMEI2blETjhOHuay6-1" vertex="1">
                    <mxGeometry x="52.5" y="850" width="120" height="40" as="geometry"/>
                </mxCell>
            </root>
        </mxGraphModel>
    </diagram>
    <diagram id="qEQgpYc1AiBenk2W5cQE" name="Entities">
        <mxGraphModel dx="874" dy="770" grid="1" gridSize="10" guides="1" tooltips="1" connect="1" arrows="1" fold="1" page="1" pageScale="1" pageWidth="850" pageHeight="1100" math="0" shadow="0">
            <root>
                <mxCell id="j0nIm7u54ywMom44HG6i-0"/>
                <mxCell id="j0nIm7u54ywMom44HG6i-1" parent="j0nIm7u54ywMom44HG6i-0"/>
                <mxCell id="Jvu-h5HnF1cBdJOH4XEb-17" value="Customer" style="swimlane;fontStyle=0;childLayout=stackLayout;horizontal=1;startSize=26;fillColor=none;horizontalStack=0;resizeParent=1;resizeParentMax=0;resizeLast=0;collapsible=1;marginBottom=0;" parent="j0nIm7u54ywMom44HG6i-1" vertex="1">
                    <mxGeometry x="40" y="400" width="160" height="160" as="geometry"/>
                </mxCell>
                <mxCell id="Jvu-h5HnF1cBdJOH4XEb-18" value="+ id: string&#10;+ name: string&#10;+ sname: string&#10;+ email: string&#10;+ phone: string&#10;+ status: string&#10;" style="text;strokeColor=none;fillColor=none;align=left;verticalAlign=top;spacingLeft=4;spacingRight=4;overflow=hidden;rotatable=0;points=[[0,0.5],[1,0.5]];portConstraint=eastwest;" parent="Jvu-h5HnF1cBdJOH4XEb-17" vertex="1">
                    <mxGeometry y="26" width="160" height="134" as="geometry"/>
                </mxCell>
                <mxCell id="6e88tBMMxLbjJ41qoik0-6" style="edgeStyle=orthogonalEdgeStyle;rounded=0;orthogonalLoop=1;jettySize=auto;html=1;exitX=0.5;exitY=0;exitDx=0;exitDy=0;entryX=0.5;entryY=1.053;entryDx=0;entryDy=0;entryPerimeter=0;startArrow=ERmandOne;startFill=0;endArrow=ERoneToMany;endFill=0;" parent="j0nIm7u54ywMom44HG6i-1" source="Jvu-h5HnF1cBdJOH4XEb-21" target="6e88tBMMxLbjJ41qoik0-3" edge="1">
                    <mxGeometry relative="1" as="geometry"/>
                </mxCell>
                <mxCell id="Jvu-h5HnF1cBdJOH4XEb-21" value="Order" style="swimlane;fontStyle=0;childLayout=stackLayout;horizontal=1;startSize=26;fillColor=none;horizontalStack=0;resizeParent=1;resizeParentMax=0;resizeLast=0;collapsible=1;marginBottom=0;" parent="j0nIm7u54ywMom44HG6i-1" vertex="1">
                    <mxGeometry x="280" y="360" width="160" height="200" as="geometry"/>
                </mxCell>
                <mxCell id="Jvu-h5HnF1cBdJOH4XEb-22" value="+ id: string&#10;+ idCustomer: string&#10;+ idOrganization: string&#10;+ Basket: array&lt;BasketItem&gt;&#10;+ type: string&#10;+ price: number&#10;+ status: string&#10;+ dateCreate: date&#10;+ comment: string&#10;+ dateCustomer: date&#10;+ address: string" style="text;strokeColor=none;fillColor=none;align=left;verticalAlign=top;spacingLeft=4;spacingRight=4;overflow=hidden;rotatable=0;points=[[0,0.5],[1,0.5]];portConstraint=eastwest;" parent="Jvu-h5HnF1cBdJOH4XEb-21" vertex="1">
                    <mxGeometry y="26" width="160" height="174" as="geometry"/>
                </mxCell>
                <mxCell id="Jvu-h5HnF1cBdJOH4XEb-25" value="Employee" style="swimlane;fontStyle=0;childLayout=stackLayout;horizontal=1;startSize=26;fillColor=none;horizontalStack=0;resizeParent=1;resizeParentMax=0;resizeLast=0;collapsible=1;marginBottom=0;" parent="j0nIm7u54ywMom44HG6i-1" vertex="1">
                    <mxGeometry x="520" y="160" width="160" height="200" as="geometry"/>
                </mxCell>
                <mxCell id="Jvu-h5HnF1cBdJOH4XEb-26" value="+ id: string&#10;+ Positions: array&lt;Position&gt;&#10;+ name: string&#10;+ sname: string&#10;+ email: string&#10;+ password: string&#10;+ phone: string&#10;+ status: string" style="text;strokeColor=none;fillColor=none;align=left;verticalAlign=top;spacingLeft=4;spacingRight=4;overflow=hidden;rotatable=0;points=[[0,0.5],[1,0.5]];portConstraint=eastwest;" parent="Jvu-h5HnF1cBdJOH4XEb-25" vertex="1">
                    <mxGeometry y="26" width="160" height="174" as="geometry"/>
                </mxCell>
                <mxCell id="Jvu-h5HnF1cBdJOH4XEb-29" value="Organization" style="swimlane;fontStyle=0;childLayout=stackLayout;horizontal=1;startSize=26;fillColor=none;horizontalStack=0;resizeParent=1;resizeParentMax=0;resizeLast=0;collapsible=1;marginBottom=0;" parent="j0nIm7u54ywMom44HG6i-1" vertex="1">
                    <mxGeometry x="280" y="40" width="160" height="120" as="geometry"/>
                </mxCell>
                <mxCell id="Jvu-h5HnF1cBdJOH4XEb-30" value="+ id: string&#10;+ idsCategories array&lt;string&gt;&#10;+ name: string&#10;+ phone: string&#10;+ status: string&#10;" style="text;strokeColor=none;fillColor=none;align=left;verticalAlign=top;spacingLeft=4;spacingRight=4;overflow=hidden;rotatable=0;points=[[0,0.5],[1,0.5]];portConstraint=eastwest;" parent="Jvu-h5HnF1cBdJOH4XEb-29" vertex="1">
                    <mxGeometry y="26" width="160" height="94" as="geometry"/>
                </mxCell>
                <mxCell id="Jvu-h5HnF1cBdJOH4XEb-33" value="Product" style="swimlane;fontStyle=0;childLayout=stackLayout;horizontal=1;startSize=26;fillColor=none;horizontalStack=0;resizeParent=1;resizeParentMax=0;resizeLast=0;collapsible=1;marginBottom=0;" parent="j0nIm7u54ywMom44HG6i-1" vertex="1">
                    <mxGeometry x="40" y="200" width="160" height="160" as="geometry"/>
                </mxCell>
                <mxCell id="Jvu-h5HnF1cBdJOH4XEb-34" value="+ id: string&#10;+ idCategory: string&#10;+ idOrganization: string&#10;+ name: string&#10;+ price: number&#10;+ count: number&#10;+ status: string" style="text;strokeColor=none;fillColor=none;align=left;verticalAlign=top;spacingLeft=4;spacingRight=4;overflow=hidden;rotatable=0;points=[[0,0.5],[1,0.5]];portConstraint=eastwest;" parent="Jvu-h5HnF1cBdJOH4XEb-33" vertex="1">
                    <mxGeometry y="26" width="160" height="134" as="geometry"/>
                </mxCell>
                <mxCell id="h_ECWmbUnaJExOTTNrei-0" value="ProductCategory" style="swimlane;fontStyle=0;childLayout=stackLayout;horizontal=1;startSize=26;fillColor=none;horizontalStack=0;resizeParent=1;resizeParentMax=0;resizeLast=0;collapsible=1;marginBottom=0;" parent="j0nIm7u54ywMom44HG6i-1" vertex="1">
                    <mxGeometry x="40" y="40" width="160" height="100" as="geometry"/>
                </mxCell>
                <mxCell id="h_ECWmbUnaJExOTTNrei-1" value="+ id: string&#10;+ name: string&#10;+ status: string" style="text;strokeColor=none;fillColor=none;align=left;verticalAlign=top;spacingLeft=4;spacingRight=4;overflow=hidden;rotatable=0;points=[[0,0.5],[1,0.5]];portConstraint=eastwest;" parent="h_ECWmbUnaJExOTTNrei-0" vertex="1">
                    <mxGeometry y="26" width="160" height="74" as="geometry"/>
                </mxCell>
                <mxCell id="h_ECWmbUnaJExOTTNrei-4" value="" style="endArrow=ERoneToMany;html=1;rounded=0;exitX=0.506;exitY=1.056;exitDx=0;exitDy=0;exitPerimeter=0;entryX=0.5;entryY=0;entryDx=0;entryDy=0;startArrow=ERmandOne;startFill=0;endFill=0;" parent="j0nIm7u54ywMom44HG6i-1" source="h_ECWmbUnaJExOTTNrei-1" target="Jvu-h5HnF1cBdJOH4XEb-33" edge="1">
                    <mxGeometry relative="1" as="geometry">
                        <mxPoint x="210" y="220" as="sourcePoint"/>
                        <mxPoint x="370" y="220" as="targetPoint"/>
                    </mxGeometry>
                </mxCell>
                <mxCell id="h_ECWmbUnaJExOTTNrei-6" value="" style="endArrow=ERmandOne;html=1;rounded=0;endFill=0;startArrow=ERoneToMany;startFill=0;entryX=-0.006;entryY=0.138;entryDx=0;entryDy=0;entryPerimeter=0;exitX=1.019;exitY=0.189;exitDx=0;exitDy=0;exitPerimeter=0;" parent="j0nIm7u54ywMom44HG6i-1" source="h_ECWmbUnaJExOTTNrei-1" target="Jvu-h5HnF1cBdJOH4XEb-30" edge="1">
                    <mxGeometry relative="1" as="geometry">
                        <mxPoint x="200" y="220" as="sourcePoint"/>
                        <mxPoint x="278" y="83" as="targetPoint"/>
                        <Array as="points">
                            <mxPoint x="240" y="80"/>
                        </Array>
                    </mxGeometry>
                </mxCell>
                <mxCell id="h_ECWmbUnaJExOTTNrei-12" value="" style="endArrow=ERmandOne;html=1;rounded=0;entryX=-0.012;entryY=0.33;entryDx=0;entryDy=0;entryPerimeter=0;endFill=0;startArrow=ERoneToMany;startFill=0;" parent="j0nIm7u54ywMom44HG6i-1" target="Jvu-h5HnF1cBdJOH4XEb-30" edge="1">
                    <mxGeometry relative="1" as="geometry">
                        <mxPoint x="199" y="240" as="sourcePoint"/>
                        <mxPoint x="360" y="260" as="targetPoint"/>
                        <Array as="points">
                            <mxPoint x="240" y="240"/>
                            <mxPoint x="240" y="97"/>
                        </Array>
                    </mxGeometry>
                </mxCell>
                <mxCell id="lUk9OTgxqQTl9jKOCSno-0" value="OrderEvent" style="swimlane;fontStyle=0;childLayout=stackLayout;horizontal=1;startSize=26;fillColor=none;horizontalStack=0;resizeParent=1;resizeParentMax=0;resizeLast=0;collapsible=1;marginBottom=0;" parent="j0nIm7u54ywMom44HG6i-1" vertex="1">
                    <mxGeometry x="520" y="400" width="160" height="160" as="geometry"/>
                </mxCell>
                <mxCell id="lUk9OTgxqQTl9jKOCSno-1" value="+ id: string&#10;+ idOrder: string&#10;+ idEmployee: string&#10;+ type: string&#10;+ status: string&#10;+ date: date&#10;+ comment: string" style="text;strokeColor=none;fillColor=none;align=left;verticalAlign=top;spacingLeft=4;spacingRight=4;overflow=hidden;rotatable=0;points=[[0,0.5],[1,0.5]];portConstraint=eastwest;" parent="lUk9OTgxqQTl9jKOCSno-0" vertex="1">
                    <mxGeometry y="26" width="160" height="134" as="geometry"/>
                </mxCell>
                <mxCell id="lUk9OTgxqQTl9jKOCSno-4" value="" style="endArrow=ERoneToMany;html=1;rounded=0;exitX=0.5;exitY=1;exitDx=0;exitDy=0;entryX=0.5;entryY=0;entryDx=0;entryDy=0;endFill=0;startArrow=ERmandOne;startFill=0;" parent="j0nIm7u54ywMom44HG6i-1" source="Jvu-h5HnF1cBdJOH4XEb-25" target="lUk9OTgxqQTl9jKOCSno-0" edge="1">
                    <mxGeometry relative="1" as="geometry">
                        <mxPoint x="600" y="240" as="sourcePoint"/>
                        <mxPoint x="760" y="240" as="targetPoint"/>
                    </mxGeometry>
                </mxCell>
                <mxCell id="6e88tBMMxLbjJ41qoik0-0" value="Position" style="swimlane;fontStyle=0;childLayout=stackLayout;horizontal=1;startSize=26;fillColor=none;horizontalStack=0;resizeParent=1;resizeParentMax=0;resizeLast=0;collapsible=1;marginBottom=0;" parent="j0nIm7u54ywMom44HG6i-1" vertex="1">
                    <mxGeometry x="520" y="40" width="160" height="80" as="geometry"/>
                </mxCell>
                <mxCell id="6e88tBMMxLbjJ41qoik0-1" value="+ idOrganization: string&#10;+ roles: array&lt;string&gt;" style="text;strokeColor=none;fillColor=none;align=left;verticalAlign=top;spacingLeft=4;spacingRight=4;overflow=hidden;rotatable=0;points=[[0,0.5],[1,0.5]];portConstraint=eastwest;" parent="6e88tBMMxLbjJ41qoik0-0" vertex="1">
                    <mxGeometry y="26" width="160" height="54" as="geometry"/>
                </mxCell>
                <mxCell id="6e88tBMMxLbjJ41qoik0-2" value="BasketItem" style="swimlane;fontStyle=0;childLayout=stackLayout;horizontal=1;startSize=26;fillColor=none;horizontalStack=0;resizeParent=1;resizeParentMax=0;resizeLast=0;collapsible=1;marginBottom=0;" parent="j0nIm7u54ywMom44HG6i-1" vertex="1">
                    <mxGeometry x="280" y="200" width="160" height="120" as="geometry"/>
                </mxCell>
                <mxCell id="6e88tBMMxLbjJ41qoik0-3" value="+ idProduct: string&#10;+ price: number&#10;+ count: number" style="text;strokeColor=none;fillColor=none;align=left;verticalAlign=top;spacingLeft=4;spacingRight=4;overflow=hidden;rotatable=0;points=[[0,0.5],[1,0.5]];portConstraint=eastwest;" parent="6e88tBMMxLbjJ41qoik0-2" vertex="1">
                    <mxGeometry y="26" width="160" height="94" as="geometry"/>
                </mxCell>
                <mxCell id="6e88tBMMxLbjJ41qoik0-8" value="" style="endArrow=ERoneToMany;html=1;exitX=1;exitY=0.104;exitDx=0;exitDy=0;exitPerimeter=0;entryX=0.013;entryY=0.31;entryDx=0;entryDy=0;entryPerimeter=0;startArrow=ERmandOne;startFill=0;endFill=0;" parent="j0nIm7u54ywMom44HG6i-1" source="Jvu-h5HnF1cBdJOH4XEb-18" target="Jvu-h5HnF1cBdJOH4XEb-22" edge="1">
                    <mxGeometry width="50" height="50" relative="1" as="geometry">
                        <mxPoint x="380" y="380" as="sourcePoint"/>
                        <mxPoint x="430" y="330" as="targetPoint"/>
                    </mxGeometry>
                </mxCell>
                <mxCell id="6e88tBMMxLbjJ41qoik0-9" value="" style="endArrow=ERmandOne;html=1;endFill=0;" parent="j0nIm7u54ywMom44HG6i-1" edge="1">
                    <mxGeometry width="50" height="50" relative="1" as="geometry">
                        <mxPoint x="200" y="283" as="sourcePoint"/>
                        <mxPoint x="276" y="283" as="targetPoint"/>
                    </mxGeometry>
                </mxCell>
                <mxCell id="6e88tBMMxLbjJ41qoik0-10" value="" style="endArrow=ERoneToMany;html=1;entryX=0.5;entryY=1.053;entryDx=0;entryDy=0;entryPerimeter=0;exitX=0.5;exitY=0;exitDx=0;exitDy=0;endFill=0;startArrow=ERmandOne;startFill=0;" parent="j0nIm7u54ywMom44HG6i-1" source="Jvu-h5HnF1cBdJOH4XEb-25" target="6e88tBMMxLbjJ41qoik0-1" edge="1">
                    <mxGeometry width="50" height="50" relative="1" as="geometry">
                        <mxPoint x="380" y="380" as="sourcePoint"/>
                        <mxPoint x="430" y="330" as="targetPoint"/>
                    </mxGeometry>
                </mxCell>
                <mxCell id="6e88tBMMxLbjJ41qoik0-11" value="" style="endArrow=ERoneToMany;html=1;exitX=1.019;exitY=0.149;exitDx=0;exitDy=0;exitPerimeter=0;startArrow=ERmandOne;startFill=0;endFill=0;" parent="j0nIm7u54ywMom44HG6i-1" source="Jvu-h5HnF1cBdJOH4XEb-30" edge="1">
                    <mxGeometry width="50" height="50" relative="1" as="geometry">
                        <mxPoint x="380" y="380" as="sourcePoint"/>
                        <mxPoint x="517" y="80" as="targetPoint"/>
                    </mxGeometry>
                </mxCell>
                <mxCell id="6e88tBMMxLbjJ41qoik0-12" value="" style="endArrow=ERoneToMany;html=1;entryX=-0.006;entryY=0.09;entryDx=0;entryDy=0;entryPerimeter=0;startArrow=ERmandOne;startFill=0;endFill=0;" parent="j0nIm7u54ywMom44HG6i-1" target="lUk9OTgxqQTl9jKOCSno-1" edge="1">
                    <mxGeometry width="50" height="50" relative="1" as="geometry">
                        <mxPoint x="442" y="438" as="sourcePoint"/>
                        <mxPoint x="430" y="330" as="targetPoint"/>
                    </mxGeometry>
                </mxCell>
                <mxCell id="6e88tBMMxLbjJ41qoik0-13" value="DeliveryData" style="swimlane;fontStyle=0;childLayout=stackLayout;horizontal=1;startSize=26;fillColor=none;horizontalStack=0;resizeParent=1;resizeParentMax=0;resizeLast=0;collapsible=1;marginBottom=0;" parent="j0nIm7u54ywMom44HG6i-1" vertex="1">
                    <mxGeometry x="520" y="600" width="160" height="80" as="geometry"/>
                </mxCell>
                <mxCell id="6e88tBMMxLbjJ41qoik0-14" value="+ lat: float&#10;+ lon: float" style="text;strokeColor=none;fillColor=none;align=left;verticalAlign=top;spacingLeft=4;spacingRight=4;overflow=hidden;rotatable=0;points=[[0,0.5],[1,0.5]];portConstraint=eastwest;" parent="6e88tBMMxLbjJ41qoik0-13" vertex="1">
                    <mxGeometry y="26" width="160" height="54" as="geometry"/>
                </mxCell>
                <mxCell id="6e88tBMMxLbjJ41qoik0-15" value="" style="endArrow=ERmandOne;html=1;entryX=0.494;entryY=1.022;entryDx=0;entryDy=0;entryPerimeter=0;startArrow=none;startFill=0;endFill=0;" parent="j0nIm7u54ywMom44HG6i-1" source="6e88tBMMxLbjJ41qoik0-13" target="lUk9OTgxqQTl9jKOCSno-1" edge="1">
                    <mxGeometry width="50" height="50" relative="1" as="geometry">
                        <mxPoint x="380" y="640" as="sourcePoint"/>
                        <mxPoint x="430" y="590" as="targetPoint"/>
                    </mxGeometry>
                </mxCell>
            </root>
        </mxGraphModel>
    </diagram>
    <diagram id="qaiLLewIzWMyxBKzQRSH" name="Classes Front">
        <mxGraphModel dx="1724" dy="770" grid="1" gridSize="10" guides="1" tooltips="1" connect="1" arrows="1" fold="1" page="1" pageScale="1" pageWidth="850" pageHeight="1100" math="0" shadow="0">
            <root>
                <mxCell id="4PN-60_owOG34Cs9xUnM-0"/>
                <mxCell id="4PN-60_owOG34Cs9xUnM-1" parent="4PN-60_owOG34Cs9xUnM-0"/>
                <mxCell id="Gct26-VxBrQ7QfGDEslx-6" value="" style="rounded=0;whiteSpace=wrap;html=1;fontSize=16;" parent="4PN-60_owOG34Cs9xUnM-1" vertex="1">
                    <mxGeometry x="-400" y="520" width="610" height="560" as="geometry"/>
                </mxCell>
                <mxCell id="Gct26-VxBrQ7QfGDEslx-4" value="" style="rounded=0;whiteSpace=wrap;html=1;fontSize=16;" parent="4PN-60_owOG34Cs9xUnM-1" vertex="1">
                    <mxGeometry x="-800" y="560" width="280" height="400" as="geometry"/>
                </mxCell>
                <mxCell id="Gct26-VxBrQ7QfGDEslx-0" value="" style="rounded=0;whiteSpace=wrap;html=1;fontSize=16;" parent="4PN-60_owOG34Cs9xUnM-1" vertex="1">
                    <mxGeometry x="-800" y="80" width="560" height="360" as="geometry"/>
                </mxCell>
                <mxCell id="cn8QiJRxpMv5lp9xRtDM-0" value="ICatalogUseCase" style="swimlane;fontStyle=1;align=center;verticalAlign=top;childLayout=stackLayout;horizontal=1;startSize=26;horizontalStack=0;resizeParent=1;resizeParentMax=0;resizeLast=0;collapsible=1;marginBottom=0;" parent="4PN-60_owOG34Cs9xUnM-1" vertex="1">
                    <mxGeometry x="-780" y="290" width="280" height="120" as="geometry"/>
                </mxCell>
                <mxCell id="cn8QiJRxpMv5lp9xRtDM-1" value="- productRepo: IProductRepository" style="text;strokeColor=none;fillColor=none;align=left;verticalAlign=top;spacingLeft=4;spacingRight=4;overflow=hidden;rotatable=0;points=[[0,0.5],[1,0.5]];portConstraint=eastwest;" parent="cn8QiJRxpMv5lp9xRtDM-0" vertex="1">
                    <mxGeometry y="26" width="280" height="26" as="geometry"/>
                </mxCell>
                <mxCell id="cn8QiJRxpMv5lp9xRtDM-2" value="" style="line;strokeWidth=1;fillColor=none;align=left;verticalAlign=middle;spacingTop=-1;spacingLeft=3;spacingRight=3;rotatable=0;labelPosition=right;points=[];portConstraint=eastwest;" parent="cn8QiJRxpMv5lp9xRtDM-0" vertex="1">
                    <mxGeometry y="52" width="280" height="8" as="geometry"/>
                </mxCell>
                <mxCell id="cn8QiJRxpMv5lp9xRtDM-3" value="+ getList(filter Array&lt;Map&gt;, group: Array&lt;Map&gt;): array&lt;ProductEntity&gt;&#10;+ getById: ProductEntity" style="text;strokeColor=none;fillColor=none;align=left;verticalAlign=top;spacingLeft=4;spacingRight=4;overflow=hidden;rotatable=0;points=[[0,0.5],[1,0.5]];portConstraint=eastwest;" parent="cn8QiJRxpMv5lp9xRtDM-0" vertex="1">
                    <mxGeometry y="60" width="280" height="60" as="geometry"/>
                </mxCell>
                <mxCell id="cn8QiJRxpMv5lp9xRtDM-4" value="ICatalogRepository" style="swimlane;fontStyle=1;align=center;verticalAlign=top;childLayout=stackLayout;horizontal=1;startSize=26;horizontalStack=0;resizeParent=1;resizeParentMax=0;resizeLast=0;collapsible=1;marginBottom=0;" parent="4PN-60_owOG34Cs9xUnM-1" vertex="1">
                    <mxGeometry x="-780" y="140" width="280" height="120" as="geometry"/>
                </mxCell>
                <mxCell id="cn8QiJRxpMv5lp9xRtDM-5" value="- db: database" style="text;strokeColor=none;fillColor=none;align=left;verticalAlign=top;spacingLeft=4;spacingRight=4;overflow=hidden;rotatable=0;points=[[0,0.5],[1,0.5]];portConstraint=eastwest;" parent="cn8QiJRxpMv5lp9xRtDM-4" vertex="1">
                    <mxGeometry y="26" width="280" height="26" as="geometry"/>
                </mxCell>
                <mxCell id="cn8QiJRxpMv5lp9xRtDM-6" value="" style="line;strokeWidth=1;fillColor=none;align=left;verticalAlign=middle;spacingTop=-1;spacingLeft=3;spacingRight=3;rotatable=0;labelPosition=right;points=[];portConstraint=eastwest;" parent="cn8QiJRxpMv5lp9xRtDM-4" vertex="1">
                    <mxGeometry y="52" width="280" height="8" as="geometry"/>
                </mxCell>
                <mxCell id="cn8QiJRxpMv5lp9xRtDM-7" value="+ getList(filter Array&lt;Map&gt;, group: Array&lt;Map&gt;): array&lt;ProductEntity&gt;&#10;+ getById: ProductEntity" style="text;strokeColor=none;fillColor=none;align=left;verticalAlign=top;spacingLeft=4;spacingRight=4;overflow=hidden;rotatable=0;points=[[0,0.5],[1,0.5]];portConstraint=eastwest;" parent="cn8QiJRxpMv5lp9xRtDM-4" vertex="1">
                    <mxGeometry y="60" width="280" height="60" as="geometry"/>
                </mxCell>
                <mxCell id="ZRG3KcVqZxq_fM9GUyX5-0" value="ICustomerRepository" style="swimlane;fontStyle=1;align=center;verticalAlign=top;childLayout=stackLayout;horizontal=1;startSize=26;horizontalStack=0;resizeParent=1;resizeParentMax=0;resizeLast=0;collapsible=1;marginBottom=0;" parent="4PN-60_owOG34Cs9xUnM-1" vertex="1">
                    <mxGeometry x="-780" y="810" width="240" height="120" as="geometry"/>
                </mxCell>
                <mxCell id="ZRG3KcVqZxq_fM9GUyX5-1" value="- db: database" style="text;strokeColor=none;fillColor=none;align=left;verticalAlign=top;spacingLeft=4;spacingRight=4;overflow=hidden;rotatable=0;points=[[0,0.5],[1,0.5]];portConstraint=eastwest;" parent="ZRG3KcVqZxq_fM9GUyX5-0" vertex="1">
                    <mxGeometry y="26" width="240" height="26" as="geometry"/>
                </mxCell>
                <mxCell id="ZRG3KcVqZxq_fM9GUyX5-2" value="" style="line;strokeWidth=1;fillColor=none;align=left;verticalAlign=middle;spacingTop=-1;spacingLeft=3;spacingRight=3;rotatable=0;labelPosition=right;points=[];portConstraint=eastwest;" parent="ZRG3KcVqZxq_fM9GUyX5-0" vertex="1">
                    <mxGeometry y="52" width="240" height="8" as="geometry"/>
                </mxCell>
                <mxCell id="ZRG3KcVqZxq_fM9GUyX5-3" value="+ getById: CustomerEntity&#10;+ edit: CustomerEntity&#10;+ create: CustomerEntity" style="text;strokeColor=none;fillColor=none;align=left;verticalAlign=top;spacingLeft=4;spacingRight=4;overflow=hidden;rotatable=0;points=[[0,0.5],[1,0.5]];portConstraint=eastwest;" parent="ZRG3KcVqZxq_fM9GUyX5-0" vertex="1">
                    <mxGeometry y="60" width="240" height="60" as="geometry"/>
                </mxCell>
                <mxCell id="BjjCka3v6ky9fRSRpkBe-0" value="ICustomerUseCase" style="swimlane;fontStyle=1;align=center;verticalAlign=top;childLayout=stackLayout;horizontal=1;startSize=26;horizontalStack=0;resizeParent=1;resizeParentMax=0;resizeLast=0;collapsible=1;marginBottom=0;" parent="4PN-60_owOG34Cs9xUnM-1" vertex="1">
                    <mxGeometry x="-780" y="620" width="240" height="160" as="geometry"/>
                </mxCell>
                <mxCell id="BjjCka3v6ky9fRSRpkBe-1" value="- customerRepo: ICustomerRepository" style="text;strokeColor=none;fillColor=none;align=left;verticalAlign=top;spacingLeft=4;spacingRight=4;overflow=hidden;rotatable=0;points=[[0,0.5],[1,0.5]];portConstraint=eastwest;" parent="BjjCka3v6ky9fRSRpkBe-0" vertex="1">
                    <mxGeometry y="26" width="240" height="26" as="geometry"/>
                </mxCell>
                <mxCell id="BjjCka3v6ky9fRSRpkBe-2" value="" style="line;strokeWidth=1;fillColor=none;align=left;verticalAlign=middle;spacingTop=-1;spacingLeft=3;spacingRight=3;rotatable=0;labelPosition=right;points=[];portConstraint=eastwest;" parent="BjjCka3v6ky9fRSRpkBe-0" vertex="1">
                    <mxGeometry y="52" width="240" height="8" as="geometry"/>
                </mxCell>
                <mxCell id="BjjCka3v6ky9fRSRpkBe-3" value="+ signUp: CustomerEntity&#10;+ signIn: CustomerEntity&#10;+ parseToken: CustomerEntity&#10;+ refreshToken: token&#10;+ getById: CustomerEntity&#10;+ edit: CustomerEntity" style="text;strokeColor=none;fillColor=none;align=left;verticalAlign=top;spacingLeft=4;spacingRight=4;overflow=hidden;rotatable=0;points=[[0,0.5],[1,0.5]];portConstraint=eastwest;" parent="BjjCka3v6ky9fRSRpkBe-0" vertex="1">
                    <mxGeometry y="60" width="240" height="100" as="geometry"/>
                </mxCell>
                <mxCell id="nLoP75ByW18FxkeL4Nod-0" value="IOrderRepository" style="swimlane;fontStyle=1;align=center;verticalAlign=top;childLayout=stackLayout;horizontal=1;startSize=26;horizontalStack=0;resizeParent=1;resizeParentMax=0;resizeLast=0;collapsible=1;marginBottom=0;" parent="4PN-60_owOG34Cs9xUnM-1" vertex="1">
                    <mxGeometry x="-370" y="780" width="240" height="160" as="geometry"/>
                </mxCell>
                <mxCell id="nLoP75ByW18FxkeL4Nod-1" value="- db: database" style="text;strokeColor=none;fillColor=none;align=left;verticalAlign=top;spacingLeft=4;spacingRight=4;overflow=hidden;rotatable=0;points=[[0,0.5],[1,0.5]];portConstraint=eastwest;" parent="nLoP75ByW18FxkeL4Nod-0" vertex="1">
                    <mxGeometry y="26" width="240" height="34" as="geometry"/>
                </mxCell>
                <mxCell id="nLoP75ByW18FxkeL4Nod-2" value="" style="line;strokeWidth=1;fillColor=none;align=left;verticalAlign=middle;spacingTop=-1;spacingLeft=3;spacingRight=3;rotatable=0;labelPosition=right;points=[];portConstraint=eastwest;" parent="nLoP75ByW18FxkeL4Nod-0" vertex="1">
                    <mxGeometry y="60" width="240" height="8" as="geometry"/>
                </mxCell>
                <mxCell id="nLoP75ByW18FxkeL4Nod-3" value="+ getList(id_user: String): array&lt;OrderEntity&gt;&#10;+ getById: OrderEntity&#10;+ createOrder: OrderEntity&#10;+ editOrder: OrderEntity" style="text;strokeColor=none;fillColor=none;align=left;verticalAlign=top;spacingLeft=4;spacingRight=4;overflow=hidden;rotatable=0;points=[[0,0.5],[1,0.5]];portConstraint=eastwest;" parent="nLoP75ByW18FxkeL4Nod-0" vertex="1">
                    <mxGeometry y="68" width="240" height="92" as="geometry"/>
                </mxCell>
                <mxCell id="nLoP75ByW18FxkeL4Nod-4" value="IOrderUseCase" style="swimlane;fontStyle=1;align=center;verticalAlign=top;childLayout=stackLayout;horizontal=1;startSize=26;horizontalStack=0;resizeParent=1;resizeParentMax=0;resizeLast=0;collapsible=1;marginBottom=0;" parent="4PN-60_owOG34Cs9xUnM-1" vertex="1">
                    <mxGeometry x="-370" y="580" width="240" height="160" as="geometry"/>
                </mxCell>
                <mxCell id="nLoP75ByW18FxkeL4Nod-5" value="- orderRepo: IOrderRepository&#10;- productRepo: IProductRepository&#10;- customerRepo: ICustomerRepository" style="text;strokeColor=none;fillColor=none;align=left;verticalAlign=top;spacingLeft=4;spacingRight=4;overflow=hidden;rotatable=0;points=[[0,0.5],[1,0.5]];portConstraint=eastwest;" parent="nLoP75ByW18FxkeL4Nod-4" vertex="1">
                    <mxGeometry y="26" width="240" height="54" as="geometry"/>
                </mxCell>
                <mxCell id="nLoP75ByW18FxkeL4Nod-6" value="" style="line;strokeWidth=1;fillColor=none;align=left;verticalAlign=middle;spacingTop=-1;spacingLeft=3;spacingRight=3;rotatable=0;labelPosition=right;points=[];portConstraint=eastwest;" parent="nLoP75ByW18FxkeL4Nod-4" vertex="1">
                    <mxGeometry y="80" width="240" height="8" as="geometry"/>
                </mxCell>
                <mxCell id="nLoP75ByW18FxkeL4Nod-7" value="+ getList(id_user: String): array&lt;OrderEntity&gt;&#10;+ getById: OrderEntity&#10;+ createOrder: OrderEntity&#10;+ editOrder: OrderEntity" style="text;strokeColor=none;fillColor=none;align=left;verticalAlign=top;spacingLeft=4;spacingRight=4;overflow=hidden;rotatable=0;points=[[0,0.5],[1,0.5]];portConstraint=eastwest;" parent="nLoP75ByW18FxkeL4Nod-4" vertex="1">
                    <mxGeometry y="88" width="240" height="72" as="geometry"/>
                </mxCell>
                <mxCell id="gf4Ni_25afOcTiYWa91q-1" value="&lt;div align=&quot;left&quot;&gt;Get list of products&lt;br&gt;Could be grouped by Category &lt;br&gt;and by Organization&lt;br&gt;Can be filtered by Organization, Category, Title&lt;br&gt;&lt;/div&gt;" style="text;html=1;fillColor=none;align=left;verticalAlign=middle;whiteSpace=wrap;rounded=0;strokeColor=#000000;dashed=1;spacingLeft=10;" parent="4PN-60_owOG34Cs9xUnM-1" vertex="1">
                    <mxGeometry x="-480" y="290" width="200" height="90" as="geometry"/>
                </mxCell>
                <mxCell id="gf4Ni_25afOcTiYWa91q-16" value="ICustomerRepository" style="swimlane;fontStyle=1;align=center;verticalAlign=top;childLayout=stackLayout;horizontal=1;startSize=26;horizontalStack=0;resizeParent=1;resizeParentMax=0;resizeLast=0;collapsible=1;marginBottom=0;" parent="4PN-60_owOG34Cs9xUnM-1" vertex="1">
                    <mxGeometry x="-90" y="980" width="240" height="90" as="geometry"/>
                </mxCell>
                <mxCell id="gf4Ni_25afOcTiYWa91q-17" value="- customer: ICustomerUseCase" style="text;strokeColor=none;fillColor=none;align=left;verticalAlign=top;spacingLeft=4;spacingRight=4;overflow=hidden;rotatable=0;points=[[0,0.5],[1,0.5]];portConstraint=eastwest;" parent="gf4Ni_25afOcTiYWa91q-16" vertex="1">
                    <mxGeometry y="26" width="240" height="24" as="geometry"/>
                </mxCell>
                <mxCell id="gf4Ni_25afOcTiYWa91q-18" value="" style="line;strokeWidth=1;fillColor=none;align=left;verticalAlign=middle;spacingTop=-1;spacingLeft=3;spacingRight=3;rotatable=0;labelPosition=right;points=[];portConstraint=eastwest;" parent="gf4Ni_25afOcTiYWa91q-16" vertex="1">
                    <mxGeometry y="50" width="240" height="8" as="geometry"/>
                </mxCell>
                <mxCell id="gf4Ni_25afOcTiYWa91q-19" value="+ getById: OrderEntity" style="text;strokeColor=none;fillColor=none;align=left;verticalAlign=top;spacingLeft=4;spacingRight=4;overflow=hidden;rotatable=0;points=[[0,0.5],[1,0.5]];portConstraint=eastwest;" parent="gf4Ni_25afOcTiYWa91q-16" vertex="1">
                    <mxGeometry y="58" width="240" height="32" as="geometry"/>
                </mxCell>
                <mxCell id="gf4Ni_25afOcTiYWa91q-20" value="IProductRepository" style="swimlane;fontStyle=1;align=center;verticalAlign=top;childLayout=stackLayout;horizontal=1;startSize=26;horizontalStack=0;resizeParent=1;resizeParentMax=0;resizeLast=0;collapsible=1;marginBottom=0;" parent="4PN-60_owOG34Cs9xUnM-1" vertex="1">
                    <mxGeometry x="-370" y="980" width="240" height="90" as="geometry"/>
                </mxCell>
                <mxCell id="gf4Ni_25afOcTiYWa91q-21" value="- catalog: ICatalogUseCase" style="text;strokeColor=none;fillColor=none;align=left;verticalAlign=top;spacingLeft=4;spacingRight=4;overflow=hidden;rotatable=0;points=[[0,0.5],[1,0.5]];portConstraint=eastwest;" parent="gf4Ni_25afOcTiYWa91q-20" vertex="1">
                    <mxGeometry y="26" width="240" height="24" as="geometry"/>
                </mxCell>
                <mxCell id="gf4Ni_25afOcTiYWa91q-22" value="" style="line;strokeWidth=1;fillColor=none;align=left;verticalAlign=middle;spacingTop=-1;spacingLeft=3;spacingRight=3;rotatable=0;labelPosition=right;points=[];portConstraint=eastwest;" parent="gf4Ni_25afOcTiYWa91q-20" vertex="1">
                    <mxGeometry y="50" width="240" height="8" as="geometry"/>
                </mxCell>
                <mxCell id="gf4Ni_25afOcTiYWa91q-23" value="+ getList(ids: Array&lt;String&gt;): Array&lt;ProductEntity&gt; " style="text;strokeColor=none;fillColor=none;align=left;verticalAlign=top;spacingLeft=4;spacingRight=4;overflow=hidden;rotatable=0;points=[[0,0.5],[1,0.5]];portConstraint=eastwest;" parent="gf4Ni_25afOcTiYWa91q-20" vertex="1">
                    <mxGeometry y="58" width="240" height="32" as="geometry"/>
                </mxCell>
                <mxCell id="gf4Ni_25afOcTiYWa91q-24" value="IOrderSpecification" style="swimlane;fontStyle=1;align=center;verticalAlign=top;childLayout=stackLayout;horizontal=1;startSize=26;horizontalStack=0;resizeParent=1;resizeParentMax=0;resizeLast=0;collapsible=1;marginBottom=0;" parent="4PN-60_owOG34Cs9xUnM-1" vertex="1">
                    <mxGeometry x="-90" y="780" width="240" height="160" as="geometry"/>
                </mxCell>
                <mxCell id="gf4Ni_25afOcTiYWa91q-25" value="- user: UserEntity&#10;- order: OrderEntity&#10;" style="text;strokeColor=none;fillColor=none;align=left;verticalAlign=top;spacingLeft=4;spacingRight=4;overflow=hidden;rotatable=0;points=[[0,0.5],[1,0.5]];portConstraint=eastwest;" parent="gf4Ni_25afOcTiYWa91q-24" vertex="1">
                    <mxGeometry y="26" width="240" height="54" as="geometry"/>
                </mxCell>
                <mxCell id="gf4Ni_25afOcTiYWa91q-26" value="" style="line;strokeWidth=1;fillColor=none;align=left;verticalAlign=middle;spacingTop=-1;spacingLeft=3;spacingRight=3;rotatable=0;labelPosition=right;points=[];portConstraint=eastwest;" parent="gf4Ni_25afOcTiYWa91q-24" vertex="1">
                    <mxGeometry y="80" width="240" height="8" as="geometry"/>
                </mxCell>
                <mxCell id="gf4Ni_25afOcTiYWa91q-27" value="+ checkUser: Boolean, Error&#10;+ checkOrder: Boolean, Error" style="text;strokeColor=none;fillColor=none;align=left;verticalAlign=top;spacingLeft=4;spacingRight=4;overflow=hidden;rotatable=0;points=[[0,0.5],[1,0.5]];portConstraint=eastwest;" parent="gf4Ni_25afOcTiYWa91q-24" vertex="1">
                    <mxGeometry y="88" width="240" height="72" as="geometry"/>
                </mxCell>
                <mxCell id="gf4Ni_25afOcTiYWa91q-28" value="Customer application" style="text;html=1;strokeColor=none;fillColor=none;align=center;verticalAlign=middle;whiteSpace=wrap;rounded=0;dashed=1;fontStyle=1;fontSize=18;" parent="4PN-60_owOG34Cs9xUnM-1" vertex="1">
                    <mxGeometry x="-800" y="20" width="240" height="20" as="geometry"/>
                </mxCell>
                <mxCell id="Gct26-VxBrQ7QfGDEslx-1" value="Catalog Package" style="text;html=1;strokeColor=none;fillColor=none;align=center;verticalAlign=middle;whiteSpace=wrap;rounded=0;fontSize=16;" parent="4PN-60_owOG34Cs9xUnM-1" vertex="1">
                    <mxGeometry x="-800" y="80" width="200" height="40" as="geometry"/>
                </mxCell>
                <mxCell id="Gct26-VxBrQ7QfGDEslx-5" value="Customer Package" style="text;html=1;strokeColor=none;fillColor=none;align=center;verticalAlign=middle;whiteSpace=wrap;rounded=0;fontSize=16;" parent="4PN-60_owOG34Cs9xUnM-1" vertex="1">
                    <mxGeometry x="-790" y="570" width="210" height="20" as="geometry"/>
                </mxCell>
                <mxCell id="Gct26-VxBrQ7QfGDEslx-8" value="Order Package" style="text;html=1;strokeColor=none;fillColor=none;align=center;verticalAlign=middle;whiteSpace=wrap;rounded=0;fontSize=16;" parent="4PN-60_owOG34Cs9xUnM-1" vertex="1">
                    <mxGeometry x="-390" y="530" width="250" height="20" as="geometry"/>
                </mxCell>
                <mxCell id="Gct26-VxBrQ7QfGDEslx-9" value="" style="endArrow=none;html=1;fontSize=16;exitX=1.004;exitY=0.2;exitDx=0;exitDy=0;exitPerimeter=0;entryX=0.003;entryY=0.214;entryDx=0;entryDy=0;entryPerimeter=0;startArrow=classic;startFill=1;" parent="4PN-60_owOG34Cs9xUnM-1" source="Gct26-VxBrQ7QfGDEslx-4" target="Gct26-VxBrQ7QfGDEslx-6" edge="1">
                    <mxGeometry width="50" height="50" relative="1" as="geometry">
                        <mxPoint x="-330" y="450" as="sourcePoint"/>
                        <mxPoint x="-280" y="400" as="targetPoint"/>
                    </mxGeometry>
                </mxCell>
                <mxCell id="Gct26-VxBrQ7QfGDEslx-10" value="" style="endArrow=none;html=1;fontSize=16;exitX=0.516;exitY=1.011;exitDx=0;exitDy=0;exitPerimeter=0;entryX=-0.002;entryY=0.073;entryDx=0;entryDy=0;entryPerimeter=0;startArrow=classic;startFill=1;" parent="4PN-60_owOG34Cs9xUnM-1" source="Gct26-VxBrQ7QfGDEslx-0" target="Gct26-VxBrQ7QfGDEslx-6" edge="1">
                    <mxGeometry width="50" height="50" relative="1" as="geometry">
                        <mxPoint x="-330" y="650" as="sourcePoint"/>
                        <mxPoint x="-280" y="600" as="targetPoint"/>
                    </mxGeometry>
                </mxCell>
            </root>
        </mxGraphModel>
    </diagram>
    <diagram id="_YbraWqpuX3BuAgKWN6f" name="Classes Back">
        <mxGraphModel dx="874" dy="770" grid="1" gridSize="10" guides="1" tooltips="1" connect="1" arrows="1" fold="1" page="1" pageScale="1" pageWidth="850" pageHeight="1100" math="0" shadow="0">
            <root>
                <mxCell id="jXBHFCfUeEftKUjGaYy8-0"/>
                <mxCell id="jXBHFCfUeEftKUjGaYy8-1" parent="jXBHFCfUeEftKUjGaYy8-0"/>
                <mxCell id="zGMJzx3Yyzupy9ZpUIi1-36" value="" style="rounded=0;whiteSpace=wrap;html=1;fontSize=16;" parent="jXBHFCfUeEftKUjGaYy8-1" vertex="1">
                    <mxGeometry x="1360" y="600" width="480" height="400" as="geometry"/>
                </mxCell>
                <mxCell id="zGMJzx3Yyzupy9ZpUIi1-0" value="" style="rounded=0;whiteSpace=wrap;html=1;fontSize=16;" parent="jXBHFCfUeEftKUjGaYy8-1" vertex="1">
                    <mxGeometry x="1280" y="80" width="560" height="400" as="geometry"/>
                </mxCell>
                <mxCell id="1uVc9M0ACAjgXIFkm7lT-24" value="" style="rounded=0;whiteSpace=wrap;html=1;fontSize=16;" parent="jXBHFCfUeEftKUjGaYy8-1" vertex="1">
                    <mxGeometry x="40" y="600" width="320" height="400" as="geometry"/>
                </mxCell>
                <mxCell id="1uVc9M0ACAjgXIFkm7lT-10" value="" style="rounded=0;whiteSpace=wrap;html=1;fontSize=16;" parent="jXBHFCfUeEftKUjGaYy8-1" vertex="1">
                    <mxGeometry x="480" y="80" width="290" height="400" as="geometry"/>
                </mxCell>
                <mxCell id="skw9r_sLF5XAJkPrL9l3-8" value="&lt;b&gt;Operation application&lt;/b&gt;" style="text;html=1;strokeColor=none;fillColor=none;align=center;verticalAlign=middle;whiteSpace=wrap;rounded=0;dashed=1;fontSize=18;" parent="jXBHFCfUeEftKUjGaYy8-1" vertex="1">
                    <mxGeometry x="40" y="40" width="200" height="20" as="geometry"/>
                </mxCell>
                <mxCell id="skw9r_sLF5XAJkPrL9l3-9" value="ICustomerUseCase" style="swimlane;fontStyle=1;align=center;verticalAlign=top;childLayout=stackLayout;horizontal=1;startSize=26;horizontalStack=0;resizeParent=1;resizeParentMax=0;resizeLast=0;collapsible=1;marginBottom=0;" parent="jXBHFCfUeEftKUjGaYy8-1" vertex="1">
                    <mxGeometry x="60" y="820" width="280" height="120" as="geometry"/>
                </mxCell>
                <mxCell id="skw9r_sLF5XAJkPrL9l3-10" value="- productRepo: ProductRepository" style="text;strokeColor=none;fillColor=none;align=left;verticalAlign=top;spacingLeft=4;spacingRight=4;overflow=hidden;rotatable=0;points=[[0,0.5],[1,0.5]];portConstraint=eastwest;" parent="skw9r_sLF5XAJkPrL9l3-9" vertex="1">
                    <mxGeometry y="26" width="280" height="26" as="geometry"/>
                </mxCell>
                <mxCell id="skw9r_sLF5XAJkPrL9l3-11" value="" style="line;strokeWidth=1;fillColor=none;align=left;verticalAlign=middle;spacingTop=-1;spacingLeft=3;spacingRight=3;rotatable=0;labelPosition=right;points=[];portConstraint=eastwest;" parent="skw9r_sLF5XAJkPrL9l3-9" vertex="1">
                    <mxGeometry y="52" width="280" height="8" as="geometry"/>
                </mxCell>
                <mxCell id="skw9r_sLF5XAJkPrL9l3-12" value="+ getList: array&lt;ProductEntity&gt;&#10;+ getById: ProductEntity&#10;+ edit: ProductEntity" style="text;strokeColor=none;fillColor=none;align=left;verticalAlign=top;spacingLeft=4;spacingRight=4;overflow=hidden;rotatable=0;points=[[0,0.5],[1,0.5]];portConstraint=eastwest;" parent="skw9r_sLF5XAJkPrL9l3-9" vertex="1">
                    <mxGeometry y="60" width="280" height="60" as="geometry"/>
                </mxCell>
                <mxCell id="skw9r_sLF5XAJkPrL9l3-13" value="ICustomerManageRepository" style="swimlane;fontStyle=1;align=center;verticalAlign=top;childLayout=stackLayout;horizontal=1;startSize=26;horizontalStack=0;resizeParent=1;resizeParentMax=0;resizeLast=0;collapsible=1;marginBottom=0;" parent="jXBHFCfUeEftKUjGaYy8-1" vertex="1">
                    <mxGeometry x="60" y="660" width="280" height="120" as="geometry"/>
                </mxCell>
                <mxCell id="skw9r_sLF5XAJkPrL9l3-14" value="- db: database" style="text;strokeColor=none;fillColor=none;align=left;verticalAlign=top;spacingLeft=4;spacingRight=4;overflow=hidden;rotatable=0;points=[[0,0.5],[1,0.5]];portConstraint=eastwest;" parent="skw9r_sLF5XAJkPrL9l3-13" vertex="1">
                    <mxGeometry y="26" width="280" height="26" as="geometry"/>
                </mxCell>
                <mxCell id="skw9r_sLF5XAJkPrL9l3-15" value="" style="line;strokeWidth=1;fillColor=none;align=left;verticalAlign=middle;spacingTop=-1;spacingLeft=3;spacingRight=3;rotatable=0;labelPosition=right;points=[];portConstraint=eastwest;" parent="skw9r_sLF5XAJkPrL9l3-13" vertex="1">
                    <mxGeometry y="52" width="280" height="8" as="geometry"/>
                </mxCell>
                <mxCell id="skw9r_sLF5XAJkPrL9l3-16" value="+ getList: array&lt;CustomerEntity&gt;&#10;+ getById: CustomerEntity&#10;+ edit: CustomerEntity&#10;" style="text;strokeColor=none;fillColor=none;align=left;verticalAlign=top;spacingLeft=4;spacingRight=4;overflow=hidden;rotatable=0;points=[[0,0.5],[1,0.5]];portConstraint=eastwest;" parent="skw9r_sLF5XAJkPrL9l3-13" vertex="1">
                    <mxGeometry y="60" width="280" height="60" as="geometry"/>
                </mxCell>
                <mxCell id="Pxc2OVQ7xZ0Lc8zfiHza-4" value="IEmployeeManageRepository" style="swimlane;fontStyle=1;align=center;verticalAlign=top;childLayout=stackLayout;horizontal=1;startSize=26;horizontalStack=0;resizeParent=1;resizeParentMax=0;resizeLast=0;collapsible=1;marginBottom=0;" parent="jXBHFCfUeEftKUjGaYy8-1" vertex="1">
                    <mxGeometry x="1310" y="310" width="280" height="130" as="geometry"/>
                </mxCell>
                <mxCell id="Pxc2OVQ7xZ0Lc8zfiHza-5" value="- db: database" style="text;strokeColor=none;fillColor=none;align=left;verticalAlign=top;spacingLeft=4;spacingRight=4;overflow=hidden;rotatable=0;points=[[0,0.5],[1,0.5]];portConstraint=eastwest;" parent="Pxc2OVQ7xZ0Lc8zfiHza-4" vertex="1">
                    <mxGeometry y="26" width="280" height="26" as="geometry"/>
                </mxCell>
                <mxCell id="Pxc2OVQ7xZ0Lc8zfiHza-6" value="" style="line;strokeWidth=1;fillColor=none;align=left;verticalAlign=middle;spacingTop=-1;spacingLeft=3;spacingRight=3;rotatable=0;labelPosition=right;points=[];portConstraint=eastwest;" parent="Pxc2OVQ7xZ0Lc8zfiHza-4" vertex="1">
                    <mxGeometry y="52" width="280" height="8" as="geometry"/>
                </mxCell>
                <mxCell id="Pxc2OVQ7xZ0Lc8zfiHza-7" value="+ getList: Array&lt;EmployeeEntity&gt;+ getById: EmployeeEntity&#10;+ edit: EmployeeEntity&#10;+ create: EmployeeEntity" style="text;strokeColor=none;fillColor=none;align=left;verticalAlign=top;spacingLeft=4;spacingRight=4;overflow=hidden;rotatable=0;points=[[0,0.5],[1,0.5]];portConstraint=eastwest;" parent="Pxc2OVQ7xZ0Lc8zfiHza-4" vertex="1">
                    <mxGeometry y="60" width="280" height="70" as="geometry"/>
                </mxCell>
                <mxCell id="Pxc2OVQ7xZ0Lc8zfiHza-8" value="IEmployeeManageUseCase" style="swimlane;fontStyle=1;align=center;verticalAlign=top;childLayout=stackLayout;horizontal=1;startSize=26;horizontalStack=0;resizeParent=1;resizeParentMax=0;resizeLast=0;collapsible=1;marginBottom=0;" parent="jXBHFCfUeEftKUjGaYy8-1" vertex="1">
                    <mxGeometry x="1310" y="120" width="280" height="160" as="geometry"/>
                </mxCell>
                <mxCell id="Pxc2OVQ7xZ0Lc8zfiHza-9" value="- employeeRepo: IEmployeeRepository" style="text;strokeColor=none;fillColor=none;align=left;verticalAlign=top;spacingLeft=4;spacingRight=4;overflow=hidden;rotatable=0;points=[[0,0.5],[1,0.5]];portConstraint=eastwest;" parent="Pxc2OVQ7xZ0Lc8zfiHza-8" vertex="1">
                    <mxGeometry y="26" width="280" height="26" as="geometry"/>
                </mxCell>
                <mxCell id="Pxc2OVQ7xZ0Lc8zfiHza-10" value="" style="line;strokeWidth=1;fillColor=none;align=left;verticalAlign=middle;spacingTop=-1;spacingLeft=3;spacingRight=3;rotatable=0;labelPosition=right;points=[];portConstraint=eastwest;" parent="Pxc2OVQ7xZ0Lc8zfiHza-8" vertex="1">
                    <mxGeometry y="52" width="280" height="8" as="geometry"/>
                </mxCell>
                <mxCell id="Pxc2OVQ7xZ0Lc8zfiHza-11" value="+ signIn: EmployeeEntity&#10;+ checkAccess: Boolean, Error&#10;+ getList: Array&lt;EmployeeEntity&gt;+ getById: EmployeeEntity&#10;+ edit: EmployeeEntity&#10;+ create: EmployeeEntity" style="text;strokeColor=none;fillColor=none;align=left;verticalAlign=top;spacingLeft=4;spacingRight=4;overflow=hidden;rotatable=0;points=[[0,0.5],[1,0.5]];portConstraint=eastwest;" parent="Pxc2OVQ7xZ0Lc8zfiHza-8" vertex="1">
                    <mxGeometry y="60" width="280" height="100" as="geometry"/>
                </mxCell>
                <mxCell id="1uVc9M0ACAjgXIFkm7lT-0" value="ICategoryManageUseCase" style="swimlane;fontStyle=1;align=center;verticalAlign=top;childLayout=stackLayout;horizontal=1;startSize=26;horizontalStack=0;resizeParent=1;resizeParentMax=0;resizeLast=0;collapsible=1;marginBottom=0;" parent="jXBHFCfUeEftKUjGaYy8-1" vertex="1">
                    <mxGeometry x="510" y="303" width="230" height="150" as="geometry"/>
                </mxCell>
                <mxCell id="1uVc9M0ACAjgXIFkm7lT-1" value="- categoryRepo: CatergotyRepository" style="text;strokeColor=none;fillColor=none;align=left;verticalAlign=top;spacingLeft=4;spacingRight=4;overflow=hidden;rotatable=0;points=[[0,0.5],[1,0.5]];portConstraint=eastwest;" parent="1uVc9M0ACAjgXIFkm7lT-0" vertex="1">
                    <mxGeometry y="26" width="230" height="26" as="geometry"/>
                </mxCell>
                <mxCell id="1uVc9M0ACAjgXIFkm7lT-2" value="" style="line;strokeWidth=1;fillColor=none;align=left;verticalAlign=middle;spacingTop=-1;spacingLeft=3;spacingRight=3;rotatable=0;labelPosition=right;points=[];portConstraint=eastwest;" parent="1uVc9M0ACAjgXIFkm7lT-0" vertex="1">
                    <mxGeometry y="52" width="230" height="8" as="geometry"/>
                </mxCell>
                <mxCell id="1uVc9M0ACAjgXIFkm7lT-3" value="+ getList: array&lt;CategoryEntity&gt;&#10;+ getById: CategoryEntity&#10;+ edit: CategoryEntity&#10;+ create: CategoryEntity" style="text;strokeColor=none;fillColor=none;align=left;verticalAlign=top;spacingLeft=4;spacingRight=4;overflow=hidden;rotatable=0;points=[[0,0.5],[1,0.5]];portConstraint=eastwest;" parent="1uVc9M0ACAjgXIFkm7lT-0" vertex="1">
                    <mxGeometry y="60" width="230" height="90" as="geometry"/>
                </mxCell>
                <mxCell id="1uVc9M0ACAjgXIFkm7lT-4" value="ICategoryManageRepository" style="swimlane;fontStyle=1;align=center;verticalAlign=top;childLayout=stackLayout;horizontal=1;startSize=26;horizontalStack=0;resizeParent=1;resizeParentMax=0;resizeLast=0;collapsible=1;marginBottom=0;" parent="jXBHFCfUeEftKUjGaYy8-1" vertex="1">
                    <mxGeometry x="510" y="130" width="230" height="150" as="geometry"/>
                </mxCell>
                <mxCell id="1uVc9M0ACAjgXIFkm7lT-5" value="- db: database" style="text;strokeColor=none;fillColor=none;align=left;verticalAlign=top;spacingLeft=4;spacingRight=4;overflow=hidden;rotatable=0;points=[[0,0.5],[1,0.5]];portConstraint=eastwest;" parent="1uVc9M0ACAjgXIFkm7lT-4" vertex="1">
                    <mxGeometry y="26" width="230" height="26" as="geometry"/>
                </mxCell>
                <mxCell id="1uVc9M0ACAjgXIFkm7lT-6" value="" style="line;strokeWidth=1;fillColor=none;align=left;verticalAlign=middle;spacingTop=-1;spacingLeft=3;spacingRight=3;rotatable=0;labelPosition=right;points=[];portConstraint=eastwest;" parent="1uVc9M0ACAjgXIFkm7lT-4" vertex="1">
                    <mxGeometry y="52" width="230" height="8" as="geometry"/>
                </mxCell>
                <mxCell id="1uVc9M0ACAjgXIFkm7lT-7" value="+ getList: array&lt;CategoryEntity&gt;&#10;+ getById: CategoryEntity&#10;+ edit: CategoryEntity&#10;+ create: CategoryEntity&#10;" style="text;strokeColor=none;fillColor=none;align=left;verticalAlign=top;spacingLeft=4;spacingRight=4;overflow=hidden;rotatable=0;points=[[0,0.5],[1,0.5]];portConstraint=eastwest;" parent="1uVc9M0ACAjgXIFkm7lT-4" vertex="1">
                    <mxGeometry y="60" width="230" height="90" as="geometry"/>
                </mxCell>
                <mxCell id="1uVc9M0ACAjgXIFkm7lT-8" value="" style="rounded=0;whiteSpace=wrap;html=1;" parent="jXBHFCfUeEftKUjGaYy8-1" vertex="1">
                    <mxGeometry x="40" y="80" width="320" height="400" as="geometry"/>
                </mxCell>
                <mxCell id="skw9r_sLF5XAJkPrL9l3-4" value="IProductManageRepository" style="swimlane;fontStyle=1;align=center;verticalAlign=top;childLayout=stackLayout;horizontal=1;startSize=26;horizontalStack=0;resizeParent=1;resizeParentMax=0;resizeLast=0;collapsible=1;marginBottom=0;" parent="jXBHFCfUeEftKUjGaYy8-1" vertex="1">
                    <mxGeometry x="60" y="130" width="280" height="150" as="geometry"/>
                </mxCell>
                <mxCell id="skw9r_sLF5XAJkPrL9l3-5" value="- db: database" style="text;strokeColor=none;fillColor=none;align=left;verticalAlign=top;spacingLeft=4;spacingRight=4;overflow=hidden;rotatable=0;points=[[0,0.5],[1,0.5]];portConstraint=eastwest;" parent="skw9r_sLF5XAJkPrL9l3-4" vertex="1">
                    <mxGeometry y="26" width="280" height="26" as="geometry"/>
                </mxCell>
                <mxCell id="skw9r_sLF5XAJkPrL9l3-6" value="" style="line;strokeWidth=1;fillColor=none;align=left;verticalAlign=middle;spacingTop=-1;spacingLeft=3;spacingRight=3;rotatable=0;labelPosition=right;points=[];portConstraint=eastwest;" parent="skw9r_sLF5XAJkPrL9l3-4" vertex="1">
                    <mxGeometry y="52" width="280" height="8" as="geometry"/>
                </mxCell>
                <mxCell id="skw9r_sLF5XAJkPrL9l3-7" value="+ getList: array&lt;ProductEntity&gt;&#10;+ getById: ProductEntity&#10;+ edit: ProductEntity&#10;+ create: ProductEntity&#10;" style="text;strokeColor=none;fillColor=none;align=left;verticalAlign=top;spacingLeft=4;spacingRight=4;overflow=hidden;rotatable=0;points=[[0,0.5],[1,0.5]];portConstraint=eastwest;" parent="skw9r_sLF5XAJkPrL9l3-4" vertex="1">
                    <mxGeometry y="60" width="280" height="90" as="geometry"/>
                </mxCell>
                <mxCell id="skw9r_sLF5XAJkPrL9l3-0" value="IProductManageUseCase" style="swimlane;fontStyle=1;align=center;verticalAlign=top;childLayout=stackLayout;horizontal=1;startSize=26;horizontalStack=0;resizeParent=1;resizeParentMax=0;resizeLast=0;collapsible=1;marginBottom=0;" parent="jXBHFCfUeEftKUjGaYy8-1" vertex="1">
                    <mxGeometry x="60" y="300" width="280" height="150" as="geometry"/>
                </mxCell>
                <mxCell id="skw9r_sLF5XAJkPrL9l3-1" value="- productRepo: ProductRepository" style="text;strokeColor=none;fillColor=none;align=left;verticalAlign=top;spacingLeft=4;spacingRight=4;overflow=hidden;rotatable=0;points=[[0,0.5],[1,0.5]];portConstraint=eastwest;" parent="skw9r_sLF5XAJkPrL9l3-0" vertex="1">
                    <mxGeometry y="26" width="280" height="26" as="geometry"/>
                </mxCell>
                <mxCell id="skw9r_sLF5XAJkPrL9l3-2" value="" style="line;strokeWidth=1;fillColor=none;align=left;verticalAlign=middle;spacingTop=-1;spacingLeft=3;spacingRight=3;rotatable=0;labelPosition=right;points=[];portConstraint=eastwest;" parent="skw9r_sLF5XAJkPrL9l3-0" vertex="1">
                    <mxGeometry y="52" width="280" height="8" as="geometry"/>
                </mxCell>
                <mxCell id="skw9r_sLF5XAJkPrL9l3-3" value="+ getList: array&lt;ProductEntity&gt;&#10;+ getById: ProductEntity&#10;+ edit: ProductEntity&#10;+ create: ProductEntity" style="text;strokeColor=none;fillColor=none;align=left;verticalAlign=top;spacingLeft=4;spacingRight=4;overflow=hidden;rotatable=0;points=[[0,0.5],[1,0.5]];portConstraint=eastwest;" parent="skw9r_sLF5XAJkPrL9l3-0" vertex="1">
                    <mxGeometry y="60" width="280" height="90" as="geometry"/>
                </mxCell>
                <mxCell id="1uVc9M0ACAjgXIFkm7lT-9" value="Product package" style="text;html=1;strokeColor=none;fillColor=none;align=center;verticalAlign=middle;whiteSpace=wrap;rounded=0;fontSize=16;" parent="jXBHFCfUeEftKUjGaYy8-1" vertex="1">
                    <mxGeometry x="49" y="89" width="140" height="20" as="geometry"/>
                </mxCell>
                <mxCell id="1uVc9M0ACAjgXIFkm7lT-11" value="Category package" style="text;html=1;strokeColor=none;fillColor=none;align=center;verticalAlign=middle;whiteSpace=wrap;rounded=0;fontSize=16;" parent="jXBHFCfUeEftKUjGaYy8-1" vertex="1">
                    <mxGeometry x="490" y="89" width="180" height="20" as="geometry"/>
                </mxCell>
                <mxCell id="1uVc9M0ACAjgXIFkm7lT-13" value="" style="rounded=0;whiteSpace=wrap;html=1;fontSize=16;" parent="jXBHFCfUeEftKUjGaYy8-1" vertex="1">
                    <mxGeometry x="880" y="80" width="310" height="400" as="geometry"/>
                </mxCell>
                <mxCell id="1uVc9M0ACAjgXIFkm7lT-14" value="Organization package" style="text;html=1;strokeColor=none;fillColor=none;align=center;verticalAlign=middle;whiteSpace=wrap;rounded=0;fontSize=16;" parent="jXBHFCfUeEftKUjGaYy8-1" vertex="1">
                    <mxGeometry x="890" y="89" width="180" height="20" as="geometry"/>
                </mxCell>
                <mxCell id="1uVc9M0ACAjgXIFkm7lT-15" value="IOrganizationManageUseCase" style="swimlane;fontStyle=1;align=center;verticalAlign=top;childLayout=stackLayout;horizontal=1;startSize=26;horizontalStack=0;resizeParent=1;resizeParentMax=0;resizeLast=0;collapsible=1;marginBottom=0;" parent="jXBHFCfUeEftKUjGaYy8-1" vertex="1">
                    <mxGeometry x="920" y="293" width="230" height="150" as="geometry"/>
                </mxCell>
                <mxCell id="1uVc9M0ACAjgXIFkm7lT-16" value="- organizationRepo: OrganizationRepository" style="text;strokeColor=none;fillColor=none;align=left;verticalAlign=top;spacingLeft=4;spacingRight=4;overflow=hidden;rotatable=0;points=[[0,0.5],[1,0.5]];portConstraint=eastwest;" parent="1uVc9M0ACAjgXIFkm7lT-15" vertex="1">
                    <mxGeometry y="26" width="230" height="26" as="geometry"/>
                </mxCell>
                <mxCell id="1uVc9M0ACAjgXIFkm7lT-17" value="" style="line;strokeWidth=1;fillColor=none;align=left;verticalAlign=middle;spacingTop=-1;spacingLeft=3;spacingRight=3;rotatable=0;labelPosition=right;points=[];portConstraint=eastwest;" parent="1uVc9M0ACAjgXIFkm7lT-15" vertex="1">
                    <mxGeometry y="52" width="230" height="8" as="geometry"/>
                </mxCell>
                <mxCell id="1uVc9M0ACAjgXIFkm7lT-18" value="+ getList: array&lt;OrganizationEntity&gt;&#10;+ getById: OrganizationEntity&#10;+ edit: OrganizationEntity&#10;+ create: OrganizationEntity" style="text;strokeColor=none;fillColor=none;align=left;verticalAlign=top;spacingLeft=4;spacingRight=4;overflow=hidden;rotatable=0;points=[[0,0.5],[1,0.5]];portConstraint=eastwest;" parent="1uVc9M0ACAjgXIFkm7lT-15" vertex="1">
                    <mxGeometry y="60" width="230" height="90" as="geometry"/>
                </mxCell>
                <mxCell id="1uVc9M0ACAjgXIFkm7lT-19" value="IOrganizationManageRepository" style="swimlane;fontStyle=1;align=center;verticalAlign=top;childLayout=stackLayout;horizontal=1;startSize=26;horizontalStack=0;resizeParent=1;resizeParentMax=0;resizeLast=0;collapsible=1;marginBottom=0;" parent="jXBHFCfUeEftKUjGaYy8-1" vertex="1">
                    <mxGeometry x="920" y="120" width="230" height="150" as="geometry"/>
                </mxCell>
                <mxCell id="1uVc9M0ACAjgXIFkm7lT-20" value="- db: database" style="text;strokeColor=none;fillColor=none;align=left;verticalAlign=top;spacingLeft=4;spacingRight=4;overflow=hidden;rotatable=0;points=[[0,0.5],[1,0.5]];portConstraint=eastwest;" parent="1uVc9M0ACAjgXIFkm7lT-19" vertex="1">
                    <mxGeometry y="26" width="230" height="26" as="geometry"/>
                </mxCell>
                <mxCell id="1uVc9M0ACAjgXIFkm7lT-21" value="" style="line;strokeWidth=1;fillColor=none;align=left;verticalAlign=middle;spacingTop=-1;spacingLeft=3;spacingRight=3;rotatable=0;labelPosition=right;points=[];portConstraint=eastwest;" parent="1uVc9M0ACAjgXIFkm7lT-19" vertex="1">
                    <mxGeometry y="52" width="230" height="8" as="geometry"/>
                </mxCell>
                <mxCell id="1uVc9M0ACAjgXIFkm7lT-22" value="+ getList: array&lt;OrganizationEntity&gt;&#10;+ getById: OrganizationEntity&#10;+ edit: OrganizationEntity&#10;+ create: OrganizationEntity" style="text;strokeColor=none;fillColor=none;align=left;verticalAlign=top;spacingLeft=4;spacingRight=4;overflow=hidden;rotatable=0;points=[[0,0.5],[1,0.5]];portConstraint=eastwest;" parent="1uVc9M0ACAjgXIFkm7lT-19" vertex="1">
                    <mxGeometry y="60" width="230" height="90" as="geometry"/>
                </mxCell>
                <mxCell id="1uVc9M0ACAjgXIFkm7lT-25" value="Customer package" style="text;html=1;strokeColor=none;fillColor=none;align=center;verticalAlign=middle;whiteSpace=wrap;rounded=0;fontSize=16;" parent="jXBHFCfUeEftKUjGaYy8-1" vertex="1">
                    <mxGeometry x="50" y="610" width="140" height="20" as="geometry"/>
                </mxCell>
                <mxCell id="RgI7um9Vukh31fvX_FcG-0" value="IEmployeeSpecification" style="swimlane;fontStyle=1;align=center;verticalAlign=top;childLayout=stackLayout;horizontal=1;startSize=26;horizontalStack=0;resizeParent=1;resizeParentMax=0;resizeLast=0;collapsible=1;marginBottom=0;" parent="jXBHFCfUeEftKUjGaYy8-1" vertex="1">
                    <mxGeometry x="1620" y="310" width="200" height="110" as="geometry"/>
                </mxCell>
                <mxCell id="RgI7um9Vukh31fvX_FcG-1" value="- employee: EmployeeEntity" style="text;strokeColor=none;fillColor=none;align=left;verticalAlign=top;spacingLeft=4;spacingRight=4;overflow=hidden;rotatable=0;points=[[0,0.5],[1,0.5]];portConstraint=eastwest;" parent="RgI7um9Vukh31fvX_FcG-0" vertex="1">
                    <mxGeometry y="26" width="200" height="34" as="geometry"/>
                </mxCell>
                <mxCell id="RgI7um9Vukh31fvX_FcG-2" value="" style="line;strokeWidth=1;fillColor=none;align=left;verticalAlign=middle;spacingTop=-1;spacingLeft=3;spacingRight=3;rotatable=0;labelPosition=right;points=[];portConstraint=eastwest;" parent="RgI7um9Vukh31fvX_FcG-0" vertex="1">
                    <mxGeometry y="60" width="200" height="8" as="geometry"/>
                </mxCell>
                <mxCell id="RgI7um9Vukh31fvX_FcG-3" value="+ checkAccess: Boolean, Error" style="text;strokeColor=none;fillColor=none;align=left;verticalAlign=top;spacingLeft=4;spacingRight=4;overflow=hidden;rotatable=0;points=[[0,0.5],[1,0.5]];portConstraint=eastwest;" parent="RgI7um9Vukh31fvX_FcG-0" vertex="1">
                    <mxGeometry y="68" width="200" height="42" as="geometry"/>
                </mxCell>
                <mxCell id="zGMJzx3Yyzupy9ZpUIi1-1" value="Employee package" style="text;html=1;strokeColor=none;fillColor=none;align=center;verticalAlign=middle;whiteSpace=wrap;rounded=0;fontSize=16;" parent="jXBHFCfUeEftKUjGaYy8-1" vertex="1">
                    <mxGeometry x="1290" y="89" width="180" height="20" as="geometry"/>
                </mxCell>
                <mxCell id="zGMJzx3Yyzupy9ZpUIi1-6" value="IOrderEventUseCase" style="swimlane;fontStyle=1;align=center;verticalAlign=top;childLayout=stackLayout;horizontal=1;startSize=26;horizontalStack=0;resizeParent=1;resizeParentMax=0;resizeLast=0;collapsible=1;marginBottom=0;" parent="jXBHFCfUeEftKUjGaYy8-1" vertex="1">
                    <mxGeometry x="1390" y="645" width="200" height="160" as="geometry"/>
                </mxCell>
                <mxCell id="zGMJzx3Yyzupy9ZpUIi1-7" value="- orderEventRepo: IOrderEventRepository&#10;- employeeRepo: IEmployeeRepository" style="text;strokeColor=none;fillColor=none;align=left;verticalAlign=top;spacingLeft=4;spacingRight=4;overflow=hidden;rotatable=0;points=[[0,0.5],[1,0.5]];portConstraint=eastwest;" parent="zGMJzx3Yyzupy9ZpUIi1-6" vertex="1">
                    <mxGeometry y="26" width="200" height="54" as="geometry"/>
                </mxCell>
                <mxCell id="zGMJzx3Yyzupy9ZpUIi1-8" value="" style="line;strokeWidth=1;fillColor=none;align=left;verticalAlign=middle;spacingTop=-1;spacingLeft=3;spacingRight=3;rotatable=0;labelPosition=right;points=[];portConstraint=eastwest;" parent="zGMJzx3Yyzupy9ZpUIi1-6" vertex="1">
                    <mxGeometry y="80" width="200" height="8" as="geometry"/>
                </mxCell>
                <mxCell id="zGMJzx3Yyzupy9ZpUIi1-9" value="+ create: OrderEntity, OrderEvent&#10;+ edit: OrderEntity, OrderEvent&#10;+ getById: UserEntity&#10;+ getList: array&lt;UserEntity&gt; " style="text;strokeColor=none;fillColor=none;align=left;verticalAlign=top;spacingLeft=4;spacingRight=4;overflow=hidden;rotatable=0;points=[[0,0.5],[1,0.5]];portConstraint=eastwest;" parent="zGMJzx3Yyzupy9ZpUIi1-6" vertex="1">
                    <mxGeometry y="88" width="200" height="72" as="geometry"/>
                </mxCell>
                <mxCell id="zGMJzx3Yyzupy9ZpUIi1-26" value="IOrderEventRepository" style="swimlane;fontStyle=1;align=center;verticalAlign=top;childLayout=stackLayout;horizontal=1;startSize=26;horizontalStack=0;resizeParent=1;resizeParentMax=0;resizeLast=0;collapsible=1;marginBottom=0;" parent="jXBHFCfUeEftKUjGaYy8-1" vertex="1">
                    <mxGeometry x="1390" y="840" width="200" height="130" as="geometry"/>
                </mxCell>
                <mxCell id="zGMJzx3Yyzupy9ZpUIi1-27" value="- db: Database" style="text;strokeColor=none;fillColor=none;align=left;verticalAlign=top;spacingLeft=4;spacingRight=4;overflow=hidden;rotatable=0;points=[[0,0.5],[1,0.5]];portConstraint=eastwest;" parent="zGMJzx3Yyzupy9ZpUIi1-26" vertex="1">
                    <mxGeometry y="26" width="200" height="24" as="geometry"/>
                </mxCell>
                <mxCell id="zGMJzx3Yyzupy9ZpUIi1-28" value="" style="line;strokeWidth=1;fillColor=none;align=left;verticalAlign=middle;spacingTop=-1;spacingLeft=3;spacingRight=3;rotatable=0;labelPosition=right;points=[];portConstraint=eastwest;" parent="zGMJzx3Yyzupy9ZpUIi1-26" vertex="1">
                    <mxGeometry y="50" width="200" height="8" as="geometry"/>
                </mxCell>
                <mxCell id="zGMJzx3Yyzupy9ZpUIi1-29" value="+ create: OrderEntity, OrderEvent&#10;+ edit: OrderEntity, OrderEvent&#10;+ getById: UserEntity&#10;+ getList: array&lt;UserEntity&gt; " style="text;strokeColor=none;fillColor=none;align=left;verticalAlign=top;spacingLeft=4;spacingRight=4;overflow=hidden;rotatable=0;points=[[0,0.5],[1,0.5]];portConstraint=eastwest;" parent="zGMJzx3Yyzupy9ZpUIi1-26" vertex="1">
                    <mxGeometry y="58" width="200" height="72" as="geometry"/>
                </mxCell>
                <mxCell id="zGMJzx3Yyzupy9ZpUIi1-30" value="IEmployeeRepository" style="swimlane;fontStyle=1;align=center;verticalAlign=top;childLayout=stackLayout;horizontal=1;startSize=26;horizontalStack=0;resizeParent=1;resizeParentMax=0;resizeLast=0;collapsible=1;marginBottom=0;" parent="jXBHFCfUeEftKUjGaYy8-1" vertex="1">
                    <mxGeometry x="1620" y="860" width="200" height="110" as="geometry"/>
                </mxCell>
                <mxCell id="zGMJzx3Yyzupy9ZpUIi1-31" value="- employee: IEmployeeUseCase" style="text;strokeColor=none;fillColor=none;align=left;verticalAlign=top;spacingLeft=4;spacingRight=4;overflow=hidden;rotatable=0;points=[[0,0.5],[1,0.5]];portConstraint=eastwest;" parent="zGMJzx3Yyzupy9ZpUIi1-30" vertex="1">
                    <mxGeometry y="26" width="200" height="34" as="geometry"/>
                </mxCell>
                <mxCell id="zGMJzx3Yyzupy9ZpUIi1-32" value="" style="line;strokeWidth=1;fillColor=none;align=left;verticalAlign=middle;spacingTop=-1;spacingLeft=3;spacingRight=3;rotatable=0;labelPosition=right;points=[];portConstraint=eastwest;" parent="zGMJzx3Yyzupy9ZpUIi1-30" vertex="1">
                    <mxGeometry y="60" width="200" height="8" as="geometry"/>
                </mxCell>
                <mxCell id="zGMJzx3Yyzupy9ZpUIi1-33" value="+ getById: IEmployeeEntity&#10;+ getList: Array&lt;EmployeeEntity&gt;" style="text;strokeColor=none;fillColor=none;align=left;verticalAlign=top;spacingLeft=4;spacingRight=4;overflow=hidden;rotatable=0;points=[[0,0.5],[1,0.5]];portConstraint=eastwest;" parent="zGMJzx3Yyzupy9ZpUIi1-30" vertex="1">
                    <mxGeometry y="68" width="200" height="42" as="geometry"/>
                </mxCell>
                <mxCell id="zGMJzx3Yyzupy9ZpUIi1-34" value="" style="rounded=0;whiteSpace=wrap;html=1;fontSize=16;" parent="jXBHFCfUeEftKUjGaYy8-1" vertex="1">
                    <mxGeometry x="480" y="580" width="770" height="500" as="geometry"/>
                </mxCell>
                <mxCell id="Pxc2OVQ7xZ0Lc8zfiHza-0" value="IOrderManageUseCase" style="swimlane;fontStyle=1;align=center;verticalAlign=top;childLayout=stackLayout;horizontal=1;startSize=26;horizontalStack=0;resizeParent=1;resizeParentMax=0;resizeLast=0;collapsible=1;marginBottom=0;" parent="jXBHFCfUeEftKUjGaYy8-1" vertex="1">
                    <mxGeometry x="500" y="650" width="240" height="200" as="geometry"/>
                </mxCell>
                <mxCell id="Pxc2OVQ7xZ0Lc8zfiHza-1" value="- orderRepo: IOrderRepository&#10;- productRepo: IProductRepository&#10;- employeeRepo: IEmployeeRepository&#10;- customerRepo: ICustomerRepository" style="text;strokeColor=none;fillColor=none;align=left;verticalAlign=top;spacingLeft=4;spacingRight=4;overflow=hidden;rotatable=0;points=[[0,0.5],[1,0.5]];portConstraint=eastwest;" parent="Pxc2OVQ7xZ0Lc8zfiHza-0" vertex="1">
                    <mxGeometry y="26" width="240" height="84" as="geometry"/>
                </mxCell>
                <mxCell id="Pxc2OVQ7xZ0Lc8zfiHza-2" value="" style="line;strokeWidth=1;fillColor=none;align=left;verticalAlign=middle;spacingTop=-1;spacingLeft=3;spacingRight=3;rotatable=0;labelPosition=right;points=[];portConstraint=eastwest;" parent="Pxc2OVQ7xZ0Lc8zfiHza-0" vertex="1">
                    <mxGeometry y="110" width="240" height="8" as="geometry"/>
                </mxCell>
                <mxCell id="Pxc2OVQ7xZ0Lc8zfiHza-3" value="+ create: OrderEntity, OrderEvent&#10;+ edit: OrderEntity, OrderEvent&#10;+ getById: UserEntity&#10;+ getList: array&lt;UserEntity&gt;" style="text;strokeColor=none;fillColor=none;align=left;verticalAlign=top;spacingLeft=4;spacingRight=4;overflow=hidden;rotatable=0;points=[[0,0.5],[1,0.5]];portConstraint=eastwest;" parent="Pxc2OVQ7xZ0Lc8zfiHza-0" vertex="1">
                    <mxGeometry y="118" width="240" height="82" as="geometry"/>
                </mxCell>
                <mxCell id="zGMJzx3Yyzupy9ZpUIi1-2" value="IOrderRepository" style="swimlane;fontStyle=1;align=center;verticalAlign=top;childLayout=stackLayout;horizontal=1;startSize=26;horizontalStack=0;resizeParent=1;resizeParentMax=0;resizeLast=0;collapsible=1;marginBottom=0;" parent="jXBHFCfUeEftKUjGaYy8-1" vertex="1">
                    <mxGeometry x="500" y="890" width="240" height="160" as="geometry"/>
                </mxCell>
                <mxCell id="zGMJzx3Yyzupy9ZpUIi1-3" value="- db: Database" style="text;strokeColor=none;fillColor=none;align=left;verticalAlign=top;spacingLeft=4;spacingRight=4;overflow=hidden;rotatable=0;points=[[0,0.5],[1,0.5]];portConstraint=eastwest;" parent="zGMJzx3Yyzupy9ZpUIi1-2" vertex="1">
                    <mxGeometry y="26" width="240" height="34" as="geometry"/>
                </mxCell>
                <mxCell id="zGMJzx3Yyzupy9ZpUIi1-4" value="" style="line;strokeWidth=1;fillColor=none;align=left;verticalAlign=middle;spacingTop=-1;spacingLeft=3;spacingRight=3;rotatable=0;labelPosition=right;points=[];portConstraint=eastwest;" parent="zGMJzx3Yyzupy9ZpUIi1-2" vertex="1">
                    <mxGeometry y="60" width="240" height="8" as="geometry"/>
                </mxCell>
                <mxCell id="zGMJzx3Yyzupy9ZpUIi1-5" value="+ create: OrderEntity, OrderEvent&#10;+ edit: OrderEntity, OrderEvent&#10;+ getById: UserEntity&#10;+ getList: array&lt;UserEntity&gt;" style="text;strokeColor=none;fillColor=none;align=left;verticalAlign=top;spacingLeft=4;spacingRight=4;overflow=hidden;rotatable=0;points=[[0,0.5],[1,0.5]];portConstraint=eastwest;" parent="zGMJzx3Yyzupy9ZpUIi1-2" vertex="1">
                    <mxGeometry y="68" width="240" height="92" as="geometry"/>
                </mxCell>
                <mxCell id="zGMJzx3Yyzupy9ZpUIi1-10" value="IProductRepository" style="swimlane;fontStyle=1;align=center;verticalAlign=top;childLayout=stackLayout;horizontal=1;startSize=26;horizontalStack=0;resizeParent=1;resizeParentMax=0;resizeLast=0;collapsible=1;marginBottom=0;" parent="jXBHFCfUeEftKUjGaYy8-1" vertex="1">
                    <mxGeometry x="780" y="820" width="200" height="110" as="geometry"/>
                </mxCell>
                <mxCell id="zGMJzx3Yyzupy9ZpUIi1-11" value="- product: IProductUseCase" style="text;strokeColor=none;fillColor=none;align=left;verticalAlign=top;spacingLeft=4;spacingRight=4;overflow=hidden;rotatable=0;points=[[0,0.5],[1,0.5]];portConstraint=eastwest;" parent="zGMJzx3Yyzupy9ZpUIi1-10" vertex="1">
                    <mxGeometry y="26" width="200" height="34" as="geometry"/>
                </mxCell>
                <mxCell id="zGMJzx3Yyzupy9ZpUIi1-12" value="" style="line;strokeWidth=1;fillColor=none;align=left;verticalAlign=middle;spacingTop=-1;spacingLeft=3;spacingRight=3;rotatable=0;labelPosition=right;points=[];portConstraint=eastwest;" parent="zGMJzx3Yyzupy9ZpUIi1-10" vertex="1">
                    <mxGeometry y="60" width="200" height="8" as="geometry"/>
                </mxCell>
                <mxCell id="zGMJzx3Yyzupy9ZpUIi1-13" value="+ getById: IProductEntity&#10;+ getList: Array&lt;ProductEntity&gt;" style="text;strokeColor=none;fillColor=none;align=left;verticalAlign=top;spacingLeft=4;spacingRight=4;overflow=hidden;rotatable=0;points=[[0,0.5],[1,0.5]];portConstraint=eastwest;" parent="zGMJzx3Yyzupy9ZpUIi1-10" vertex="1">
                    <mxGeometry y="68" width="200" height="42" as="geometry"/>
                </mxCell>
                <mxCell id="zGMJzx3Yyzupy9ZpUIi1-14" value="IEmployeeRepository" style="swimlane;fontStyle=1;align=center;verticalAlign=top;childLayout=stackLayout;horizontal=1;startSize=26;horizontalStack=0;resizeParent=1;resizeParentMax=0;resizeLast=0;collapsible=1;marginBottom=0;" parent="jXBHFCfUeEftKUjGaYy8-1" vertex="1">
                    <mxGeometry x="780" y="940" width="200" height="110" as="geometry"/>
                </mxCell>
                <mxCell id="zGMJzx3Yyzupy9ZpUIi1-15" value="- employee: IEmployeeUseCase" style="text;strokeColor=none;fillColor=none;align=left;verticalAlign=top;spacingLeft=4;spacingRight=4;overflow=hidden;rotatable=0;points=[[0,0.5],[1,0.5]];portConstraint=eastwest;" parent="zGMJzx3Yyzupy9ZpUIi1-14" vertex="1">
                    <mxGeometry y="26" width="200" height="34" as="geometry"/>
                </mxCell>
                <mxCell id="zGMJzx3Yyzupy9ZpUIi1-16" value="" style="line;strokeWidth=1;fillColor=none;align=left;verticalAlign=middle;spacingTop=-1;spacingLeft=3;spacingRight=3;rotatable=0;labelPosition=right;points=[];portConstraint=eastwest;" parent="zGMJzx3Yyzupy9ZpUIi1-14" vertex="1">
                    <mxGeometry y="60" width="200" height="8" as="geometry"/>
                </mxCell>
                <mxCell id="zGMJzx3Yyzupy9ZpUIi1-17" value="+ getById: IEmployeeEntity&#10;+ getList: Array&lt;EmployeeEntity&gt;" style="text;strokeColor=none;fillColor=none;align=left;verticalAlign=top;spacingLeft=4;spacingRight=4;overflow=hidden;rotatable=0;points=[[0,0.5],[1,0.5]];portConstraint=eastwest;" parent="zGMJzx3Yyzupy9ZpUIi1-14" vertex="1">
                    <mxGeometry y="68" width="200" height="42" as="geometry"/>
                </mxCell>
                <mxCell id="zGMJzx3Yyzupy9ZpUIi1-18" value="ICustomerRepository" style="swimlane;fontStyle=1;align=center;verticalAlign=top;childLayout=stackLayout;horizontal=1;startSize=26;horizontalStack=0;resizeParent=1;resizeParentMax=0;resizeLast=0;collapsible=1;marginBottom=0;" parent="jXBHFCfUeEftKUjGaYy8-1" vertex="1">
                    <mxGeometry x="780" y="695" width="200" height="110" as="geometry"/>
                </mxCell>
                <mxCell id="zGMJzx3Yyzupy9ZpUIi1-19" value="- customer: ICustomerUseCase" style="text;strokeColor=none;fillColor=none;align=left;verticalAlign=top;spacingLeft=4;spacingRight=4;overflow=hidden;rotatable=0;points=[[0,0.5],[1,0.5]];portConstraint=eastwest;" parent="zGMJzx3Yyzupy9ZpUIi1-18" vertex="1">
                    <mxGeometry y="26" width="200" height="34" as="geometry"/>
                </mxCell>
                <mxCell id="zGMJzx3Yyzupy9ZpUIi1-20" value="" style="line;strokeWidth=1;fillColor=none;align=left;verticalAlign=middle;spacingTop=-1;spacingLeft=3;spacingRight=3;rotatable=0;labelPosition=right;points=[];portConstraint=eastwest;" parent="zGMJzx3Yyzupy9ZpUIi1-18" vertex="1">
                    <mxGeometry y="60" width="200" height="8" as="geometry"/>
                </mxCell>
                <mxCell id="zGMJzx3Yyzupy9ZpUIi1-21" value="+ getById: ICustomerEntity&#10;+ getList: Array&lt;CustomerEntity&gt;" style="text;strokeColor=none;fillColor=none;align=left;verticalAlign=top;spacingLeft=4;spacingRight=4;overflow=hidden;rotatable=0;points=[[0,0.5],[1,0.5]];portConstraint=eastwest;" parent="zGMJzx3Yyzupy9ZpUIi1-18" vertex="1">
                    <mxGeometry y="68" width="200" height="42" as="geometry"/>
                </mxCell>
                <mxCell id="zGMJzx3Yyzupy9ZpUIi1-22" value="IOrderSpecification" style="swimlane;fontStyle=1;align=center;verticalAlign=top;childLayout=stackLayout;horizontal=1;startSize=26;horizontalStack=0;resizeParent=1;resizeParentMax=0;resizeLast=0;collapsible=1;marginBottom=0;" parent="jXBHFCfUeEftKUjGaYy8-1" vertex="1">
                    <mxGeometry x="1020" y="650" width="200" height="160" as="geometry"/>
                </mxCell>
                <mxCell id="zGMJzx3Yyzupy9ZpUIi1-23" value="- order: OrderEntity&#10;- employee: EmployeeEntity&#10;- customer: CustomerEntity" style="text;strokeColor=none;fillColor=none;align=left;verticalAlign=top;spacingLeft=4;spacingRight=4;overflow=hidden;rotatable=0;points=[[0,0.5],[1,0.5]];portConstraint=eastwest;" parent="zGMJzx3Yyzupy9ZpUIi1-22" vertex="1">
                    <mxGeometry y="26" width="200" height="54" as="geometry"/>
                </mxCell>
                <mxCell id="zGMJzx3Yyzupy9ZpUIi1-24" value="" style="line;strokeWidth=1;fillColor=none;align=left;verticalAlign=middle;spacingTop=-1;spacingLeft=3;spacingRight=3;rotatable=0;labelPosition=right;points=[];portConstraint=eastwest;" parent="zGMJzx3Yyzupy9ZpUIi1-22" vertex="1">
                    <mxGeometry y="80" width="200" height="8" as="geometry"/>
                </mxCell>
                <mxCell id="zGMJzx3Yyzupy9ZpUIi1-25" value="+ checkOrder: Boolean, Error&#10;+ checkEmployee: Boolean, Error&#10;+ checkCustomer: Boolean, Error" style="text;strokeColor=none;fillColor=none;align=left;verticalAlign=top;spacingLeft=4;spacingRight=4;overflow=hidden;rotatable=0;points=[[0,0.5],[1,0.5]];portConstraint=eastwest;" parent="zGMJzx3Yyzupy9ZpUIi1-22" vertex="1">
                    <mxGeometry y="88" width="200" height="72" as="geometry"/>
                </mxCell>
                <mxCell id="zGMJzx3Yyzupy9ZpUIi1-35" value="Order package" style="text;html=1;strokeColor=none;fillColor=none;align=center;verticalAlign=middle;whiteSpace=wrap;rounded=0;fontSize=16;" parent="jXBHFCfUeEftKUjGaYy8-1" vertex="1">
                    <mxGeometry x="490" y="589" width="140" height="20" as="geometry"/>
                </mxCell>
                <mxCell id="zGMJzx3Yyzupy9ZpUIi1-37" value="OrderEvent package" style="text;html=1;strokeColor=none;fillColor=none;align=center;verticalAlign=middle;whiteSpace=wrap;rounded=0;fontSize=16;" parent="jXBHFCfUeEftKUjGaYy8-1" vertex="1">
                    <mxGeometry x="1370" y="610" width="210" height="20" as="geometry"/>
                </mxCell>
                <mxCell id="zGMJzx3Yyzupy9ZpUIi1-38" value="" style="endArrow=classic;html=1;fontSize=16;exitX=0;exitY=0.36;exitDx=0;exitDy=0;exitPerimeter=0;startArrow=none;startFill=0;endFill=1;" parent="jXBHFCfUeEftKUjGaYy8-1" source="zGMJzx3Yyzupy9ZpUIi1-34" edge="1">
                    <mxGeometry width="50" height="50" relative="1" as="geometry">
                        <mxPoint x="480" y="770" as="sourcePoint"/>
                        <mxPoint x="365" y="760" as="targetPoint"/>
                    </mxGeometry>
                </mxCell>
                <mxCell id="zGMJzx3Yyzupy9ZpUIi1-39" value="" style="endArrow=none;html=1;fontSize=16;exitX=0.5;exitY=1;exitDx=0;exitDy=0;entryX=-0.005;entryY=0.114;entryDx=0;entryDy=0;entryPerimeter=0;startArrow=classic;startFill=1;" parent="jXBHFCfUeEftKUjGaYy8-1" source="1uVc9M0ACAjgXIFkm7lT-8" target="zGMJzx3Yyzupy9ZpUIi1-34" edge="1">
                    <mxGeometry width="50" height="50" relative="1" as="geometry">
                        <mxPoint x="480" y="540" as="sourcePoint"/>
                        <mxPoint x="530" y="490" as="targetPoint"/>
                        <Array as="points">
                            <mxPoint x="340" y="560"/>
                        </Array>
                    </mxGeometry>
                </mxCell>
                <mxCell id="zGMJzx3Yyzupy9ZpUIi1-40" value="" style="endArrow=classic;html=1;fontSize=16;exitX=1;exitY=0.5;exitDx=0;exitDy=0;endFill=1;" parent="jXBHFCfUeEftKUjGaYy8-1" source="1uVc9M0ACAjgXIFkm7lT-8" target="1uVc9M0ACAjgXIFkm7lT-10" edge="1">
                    <mxGeometry width="50" height="50" relative="1" as="geometry">
                        <mxPoint x="480" y="360" as="sourcePoint"/>
                        <mxPoint x="530" y="310" as="targetPoint"/>
                    </mxGeometry>
                </mxCell>
                <mxCell id="zGMJzx3Yyzupy9ZpUIi1-41" value="" style="endArrow=classic;html=1;fontSize=16;entryX=0;entryY=0.5;entryDx=0;entryDy=0;endFill=1;" parent="jXBHFCfUeEftKUjGaYy8-1" target="1uVc9M0ACAjgXIFkm7lT-13" edge="1">
                    <mxGeometry width="50" height="50" relative="1" as="geometry">
                        <mxPoint x="770" y="280" as="sourcePoint"/>
                        <mxPoint x="820" y="230" as="targetPoint"/>
                    </mxGeometry>
                </mxCell>
                <mxCell id="zGMJzx3Yyzupy9ZpUIi1-42" value="" style="endArrow=none;html=1;fontSize=16;entryX=0;entryY=0.5;entryDx=0;entryDy=0;exitX=1;exitY=0.5;exitDx=0;exitDy=0;startArrow=classic;startFill=1;" parent="jXBHFCfUeEftKUjGaYy8-1" source="1uVc9M0ACAjgXIFkm7lT-13" target="zGMJzx3Yyzupy9ZpUIi1-0" edge="1">
                    <mxGeometry width="50" height="50" relative="1" as="geometry">
                        <mxPoint x="1030" y="360" as="sourcePoint"/>
                        <mxPoint x="1080" y="310" as="targetPoint"/>
                    </mxGeometry>
                </mxCell>
                <mxCell id="zGMJzx3Yyzupy9ZpUIi1-43" value="" style="endArrow=none;html=1;fontSize=16;exitX=0.291;exitY=1.003;exitDx=0;exitDy=0;exitPerimeter=0;entryX=1.001;entryY=0.128;entryDx=0;entryDy=0;entryPerimeter=0;endFill=0;startArrow=classic;startFill=1;" parent="jXBHFCfUeEftKUjGaYy8-1" source="zGMJzx3Yyzupy9ZpUIi1-0" target="zGMJzx3Yyzupy9ZpUIi1-34" edge="1">
                    <mxGeometry width="50" height="50" relative="1" as="geometry">
                        <mxPoint x="1030" y="650" as="sourcePoint"/>
                        <mxPoint x="1080" y="600" as="targetPoint"/>
                    </mxGeometry>
                </mxCell>
                <mxCell id="zGMJzx3Yyzupy9ZpUIi1-46" value="" style="endArrow=classic;html=1;fontSize=16;entryX=0.573;entryY=1.008;entryDx=0;entryDy=0;entryPerimeter=0;endFill=1;" parent="jXBHFCfUeEftKUjGaYy8-1" target="zGMJzx3Yyzupy9ZpUIi1-0" edge="1">
                    <mxGeometry width="50" height="50" relative="1" as="geometry">
                        <mxPoint x="1600" y="600" as="sourcePoint"/>
                        <mxPoint x="1650" y="550" as="targetPoint"/>
                    </mxGeometry>
                </mxCell>
            </root>
        </mxGraphModel>
    </diagram>
    <diagram id="HwDVhxhCfEQtIgQmciR0" name="Page-5">
        &#xa;        &#xa;        &#xa;        &#xa;        &#xa;        &#xa;        &#xa;        &#xa;        &#xa;        &#xa;        &#xa;        &#xa;        &#xa;&#xa;&#xa;&#xa;&#xa;&#xa;&#xa;&#xa;&#xa;&#xa;&#xa;&#xa;&#xa;
        <mxGraphModel dx="893" dy="760" grid="1" gridSize="10" guides="1" tooltips="1" connect="1" arrows="1" fold="1" page="1" pageScale="1" pageWidth="850" pageHeight="1100" math="0" shadow="0">
            &#xa;            &#xa;            &#xa;            &#xa;            &#xa;            &#xa;            &#xa;            &#xa;            &#xa;            &#xa;            &#xa;            &#xa;            &#xa;&#xa;&#xa;&#xa;&#xa;&#xa;&#xa;&#xa;&#xa;&#xa;&#xa;&#xa;&#xa;
            <root>
                &#xa;                &#xa;                &#xa;                &#xa;                &#xa;                &#xa;                &#xa;                &#xa;                &#xa;                &#xa;                &#xa;                &#xa;                &#xa;&#xa;&#xa;&#xa;&#xa;&#xa;&#xa;&#xa;&#xa;&#xa;&#xa;&#xa;&#xa;
                <mxCell id="BL-3MxqhHcGCgGN_yfDU-0"/>
                &#xa;                &#xa;                &#xa;                &#xa;                &#xa;                &#xa;                &#xa;                &#xa;                &#xa;                &#xa;                &#xa;                &#xa;                &#xa;&#xa;&#xa;&#xa;&#xa;&#xa;&#xa;&#xa;&#xa;&#xa;&#xa;&#xa;&#xa;
                <mxCell id="BL-3MxqhHcGCgGN_yfDU-1" parent="BL-3MxqhHcGCgGN_yfDU-0"/>
                &#xa;                &#xa;                &#xa;                &#xa;                &#xa;                &#xa;                &#xa;                &#xa;                &#xa;                &#xa;                &#xa;                &#xa;                &#xa;&#xa;&#xa;&#xa;&#xa;&#xa;&#xa;&#xa;&#xa;&#xa;&#xa;&#xa;&#xa;
                <mxCell id="BL-3MxqhHcGCgGN_yfDU-2" value="&lt;div&gt;IUserUseCase&lt;/div&gt;&lt;div&gt;getById&lt;br&gt;&lt;/div&gt;getList" style="rounded=0;whiteSpace=wrap;html=1;" parent="BL-3MxqhHcGCgGN_yfDU-1" vertex="1">
                    &#xa;                    &#xa;                    &#xa;                    &#xa;                    &#xa;                    &#xa;                    &#xa;                    &#xa;                    &#xa;                    &#xa;                    &#xa;                    &#xa;                    &#xa;&#xa;&#xa;&#xa;&#xa;&#xa;&#xa;&#xa;&#xa;&#xa;&#xa;&#xa;&#xa;
                    <mxGeometry x="200" y="360" width="160" height="80" as="geometry"/>
                    &#xa;                    &#xa;                    &#xa;                    &#xa;                    &#xa;                    &#xa;                    &#xa;                    &#xa;                    &#xa;                    &#xa;                    &#xa;                    &#xa;                    &#xa;&#xa;&#xa;&#xa;&#xa;&#xa;&#xa;&#xa;&#xa;&#xa;&#xa;&#xa;&#xa;
                </mxCell>
                &#xa;                &#xa;                &#xa;                &#xa;                &#xa;                &#xa;                &#xa;                &#xa;                &#xa;                &#xa;                &#xa;                &#xa;                &#xa;&#xa;&#xa;&#xa;&#xa;&#xa;&#xa;&#xa;&#xa;&#xa;&#xa;&#xa;&#xa;
                <mxCell id="BL-3MxqhHcGCgGN_yfDU-3" value="IUserRepo&lt;br&gt;getById&lt;br&gt;getList" style="rounded=0;whiteSpace=wrap;html=1;" parent="BL-3MxqhHcGCgGN_yfDU-1" vertex="1">
                    &#xa;                    &#xa;                    &#xa;                    &#xa;                    &#xa;                    &#xa;                    &#xa;                    &#xa;                    &#xa;                    &#xa;                    &#xa;                    &#xa;                    &#xa;&#xa;&#xa;&#xa;&#xa;&#xa;&#xa;&#xa;&#xa;&#xa;&#xa;&#xa;&#xa;
                    <mxGeometry x="200" y="240" width="160" height="80" as="geometry"/>
                    &#xa;                    &#xa;                    &#xa;                    &#xa;                    &#xa;                    &#xa;                    &#xa;                    &#xa;                    &#xa;                    &#xa;                    &#xa;                    &#xa;                    &#xa;&#xa;&#xa;&#xa;&#xa;&#xa;&#xa;&#xa;&#xa;&#xa;&#xa;&#xa;&#xa;
                </mxCell>
                &#xa;                &#xa;                &#xa;                &#xa;                &#xa;                &#xa;                &#xa;                &#xa;                &#xa;                &#xa;                &#xa;                &#xa;                &#xa;&#xa;&#xa;&#xa;&#xa;&#xa;&#xa;&#xa;&#xa;&#xa;&#xa;&#xa;&#xa;
                <mxCell id="BL-3MxqhHcGCgGN_yfDU-4" value="&lt;div&gt;IOrderMonolitRepo&lt;br&gt;getOrderListWithUserInfo&lt;br&gt;&lt;/div&gt;" style="rounded=0;whiteSpace=wrap;html=1;" parent="BL-3MxqhHcGCgGN_yfDU-1" vertex="1">
                    &#xa;                    &#xa;                    &#xa;                    &#xa;                    &#xa;                    &#xa;                    &#xa;                    &#xa;                    &#xa;                    &#xa;                    &#xa;                    &#xa;                    &#xa;&#xa;&#xa;&#xa;&#xa;&#xa;&#xa;&#xa;&#xa;&#xa;&#xa;&#xa;&#xa;
                    <mxGeometry x="520" y="240" width="160" height="80" as="geometry"/>
                    &#xa;                    &#xa;                    &#xa;                    &#xa;                    &#xa;                    &#xa;                    &#xa;                    &#xa;                    &#xa;                    &#xa;                    &#xa;                    &#xa;                    &#xa;&#xa;&#xa;&#xa;&#xa;&#xa;&#xa;&#xa;&#xa;&#xa;&#xa;&#xa;&#xa;
                </mxCell>
                &#xa;                &#xa;                &#xa;                &#xa;                &#xa;                &#xa;                &#xa;                &#xa;                &#xa;                &#xa;                &#xa;                &#xa;                &#xa;&#xa;&#xa;&#xa;&#xa;&#xa;&#xa;&#xa;&#xa;&#xa;&#xa;&#xa;&#xa;
                <mxCell id="BL-3MxqhHcGCgGN_yfDU-5" value="IOrderMonolitUseCase&lt;br&gt;getOrdersReport" style="rounded=0;whiteSpace=wrap;html=1;" parent="BL-3MxqhHcGCgGN_yfDU-1" vertex="1">
                    &#xa;                    &#xa;                    &#xa;                    &#xa;                    &#xa;                    &#xa;                    &#xa;                    &#xa;                    &#xa;                    &#xa;                    &#xa;                    &#xa;                    &#xa;&#xa;&#xa;&#xa;&#xa;&#xa;&#xa;&#xa;&#xa;&#xa;&#xa;&#xa;&#xa;
                    <mxGeometry x="520" y="360" width="160" height="80" as="geometry"/>
                    &#xa;                    &#xa;                    &#xa;                    &#xa;                    &#xa;                    &#xa;                    &#xa;                    &#xa;                    &#xa;                    &#xa;                    &#xa;                    &#xa;                    &#xa;&#xa;&#xa;&#xa;&#xa;&#xa;&#xa;&#xa;&#xa;&#xa;&#xa;&#xa;&#xa;
                </mxCell>
                &#xa;                &#xa;                &#xa;                &#xa;                &#xa;                &#xa;                &#xa;                &#xa;                &#xa;                &#xa;                &#xa;                &#xa;                &#xa;&#xa;&#xa;&#xa;&#xa;&#xa;&#xa;&#xa;&#xa;&#xa;&#xa;&#xa;&#xa;
                <mxCell id="BL-3MxqhHcGCgGN_yfDU-6" value="&lt;div&gt;IUserMicroserviceRepo&lt;br&gt;getUsersForReport&lt;br&gt;&lt;/div&gt;" style="rounded=0;whiteSpace=wrap;html=1;" parent="BL-3MxqhHcGCgGN_yfDU-1" vertex="1">
                    &#xa;                    &#xa;                    &#xa;                    &#xa;                    &#xa;                    &#xa;                    &#xa;                    &#xa;                    &#xa;                    &#xa;                    &#xa;                    &#xa;                    &#xa;&#xa;&#xa;&#xa;&#xa;&#xa;&#xa;&#xa;&#xa;&#xa;&#xa;&#xa;&#xa;
                    <mxGeometry x="200" y="680" width="160" height="80" as="geometry"/>
                    &#xa;                    &#xa;                    &#xa;                    &#xa;                    &#xa;                    &#xa;                    &#xa;                    &#xa;                    &#xa;                    &#xa;                    &#xa;                    &#xa;                    &#xa;&#xa;&#xa;&#xa;&#xa;&#xa;&#xa;&#xa;&#xa;&#xa;&#xa;&#xa;&#xa;
                </mxCell>
                &#xa;                &#xa;                &#xa;                &#xa;                &#xa;                &#xa;                &#xa;                &#xa;                &#xa;                &#xa;                &#xa;                &#xa;                &#xa;&#xa;&#xa;&#xa;&#xa;&#xa;&#xa;&#xa;&#xa;&#xa;&#xa;&#xa;&#xa;
                <mxCell id="BL-3MxqhHcGCgGN_yfDU-7" value="IOrderMicroserviceUseCase&lt;br&gt;getOrdersReport" style="rounded=0;whiteSpace=wrap;html=1;" parent="BL-3MxqhHcGCgGN_yfDU-1" vertex="1">
                    &#xa;                    &#xa;                    &#xa;                    &#xa;                    &#xa;                    &#xa;                    &#xa;                    &#xa;                    &#xa;                    &#xa;                    &#xa;                    &#xa;                    &#xa;&#xa;&#xa;&#xa;&#xa;&#xa;&#xa;&#xa;&#xa;&#xa;&#xa;&#xa;&#xa;
                    <mxGeometry x="360" y="560" width="160" height="80" as="geometry"/>
                    &#xa;                    &#xa;                    &#xa;                    &#xa;                    &#xa;                    &#xa;                    &#xa;                    &#xa;                    &#xa;                    &#xa;                    &#xa;                    &#xa;                    &#xa;&#xa;&#xa;&#xa;&#xa;&#xa;&#xa;&#xa;&#xa;&#xa;&#xa;&#xa;&#xa;
                </mxCell>
                &#xa;                &#xa;                &#xa;                &#xa;                &#xa;                &#xa;                &#xa;                &#xa;                &#xa;                &#xa;                &#xa;                &#xa;                &#xa;&#xa;&#xa;&#xa;&#xa;&#xa;&#xa;&#xa;&#xa;&#xa;&#xa;&#xa;&#xa;
                <mxCell id="BL-3MxqhHcGCgGN_yfDU-8" value="database" style="rounded=0;whiteSpace=wrap;html=1;" parent="BL-3MxqhHcGCgGN_yfDU-1" vertex="1">
                    &#xa;                    &#xa;                    &#xa;                    &#xa;                    &#xa;                    &#xa;                    &#xa;                    &#xa;                    &#xa;                    &#xa;                    &#xa;                    &#xa;                    &#xa;&#xa;&#xa;&#xa;&#xa;&#xa;&#xa;&#xa;&#xa;&#xa;&#xa;&#xa;&#xa;
                    <mxGeometry x="360" y="40" width="160" height="40" as="geometry"/>
                    &#xa;                    &#xa;                    &#xa;                    &#xa;                    &#xa;                    &#xa;                    &#xa;                    &#xa;                    &#xa;                    &#xa;                    &#xa;                    &#xa;                    &#xa;&#xa;&#xa;&#xa;&#xa;&#xa;&#xa;&#xa;&#xa;&#xa;&#xa;&#xa;&#xa;
                </mxCell>
                &#xa;                &#xa;                &#xa;                &#xa;                &#xa;                &#xa;                &#xa;                &#xa;                &#xa;                &#xa;                &#xa;                &#xa;                &#xa;&#xa;&#xa;&#xa;&#xa;&#xa;&#xa;&#xa;&#xa;&#xa;&#xa;&#xa;&#xa;
                <mxCell id="BL-3MxqhHcGCgGN_yfDU-9" value="msg broker" style="rounded=0;whiteSpace=wrap;html=1;" parent="BL-3MxqhHcGCgGN_yfDU-1" vertex="1">
                    &#xa;                    &#xa;                    &#xa;                    &#xa;                    &#xa;                    &#xa;                    &#xa;                    &#xa;                    &#xa;                    &#xa;                    &#xa;                    &#xa;                    &#xa;&#xa;&#xa;&#xa;&#xa;&#xa;&#xa;&#xa;&#xa;&#xa;&#xa;&#xa;&#xa;
                    <mxGeometry x="200" y="920" width="120" height="40" as="geometry"/>
                    &#xa;                    &#xa;                    &#xa;                    &#xa;                    &#xa;                    &#xa;                    &#xa;                    &#xa;                    &#xa;                    &#xa;                    &#xa;                    &#xa;                    &#xa;&#xa;&#xa;&#xa;&#xa;&#xa;&#xa;&#xa;&#xa;&#xa;&#xa;&#xa;&#xa;
                </mxCell>
                &#xa;                &#xa;                &#xa;                &#xa;                &#xa;                &#xa;                &#xa;                &#xa;                &#xa;                &#xa;                &#xa;                &#xa;                &#xa;&#xa;&#xa;&#xa;&#xa;&#xa;&#xa;&#xa;&#xa;&#xa;&#xa;&#xa;&#xa;
                <mxCell id="BL-3MxqhHcGCgGN_yfDU-10" value="database" style="rounded=0;whiteSpace=wrap;html=1;" parent="BL-3MxqhHcGCgGN_yfDU-1" vertex="1">
                    &#xa;                    &#xa;                    &#xa;                    &#xa;                    &#xa;                    &#xa;                    &#xa;                    &#xa;                    &#xa;                    &#xa;                    &#xa;                    &#xa;                    &#xa;&#xa;&#xa;&#xa;&#xa;&#xa;&#xa;&#xa;&#xa;&#xa;&#xa;&#xa;&#xa;
                    <mxGeometry x="560" y="920" width="120" height="40" as="geometry"/>
                    &#xa;                    &#xa;                    &#xa;                    &#xa;                    &#xa;                    &#xa;                    &#xa;                    &#xa;                    &#xa;                    &#xa;                    &#xa;                    &#xa;                    &#xa;&#xa;&#xa;&#xa;&#xa;&#xa;&#xa;&#xa;&#xa;&#xa;&#xa;&#xa;&#xa;
                </mxCell>
                &#xa;                &#xa;                &#xa;                &#xa;                &#xa;                &#xa;                &#xa;                &#xa;                &#xa;                &#xa;                &#xa;                &#xa;                &#xa;&#xa;&#xa;&#xa;&#xa;&#xa;&#xa;&#xa;&#xa;&#xa;&#xa;&#xa;&#xa;
                <mxCell id="BL-3MxqhHcGCgGN_yfDU-12" value="" style="endArrow=classic;html=1;exitX=0.5;exitY=0;exitDx=0;exitDy=0;entryX=0.5;entryY=1;entryDx=0;entryDy=0;endFill=1;" parent="BL-3MxqhHcGCgGN_yfDU-1" source="BL-3MxqhHcGCgGN_yfDU-2" target="BL-3MxqhHcGCgGN_yfDU-3" edge="1">
                    &#xa;                    &#xa;                    &#xa;                    &#xa;                    &#xa;                    &#xa;                    &#xa;                    &#xa;                    &#xa;                    &#xa;                    &#xa;                    &#xa;                    &#xa;&#xa;&#xa;&#xa;&#xa;&#xa;&#xa;&#xa;&#xa;&#xa;&#xa;&#xa;&#xa;
                    <mxGeometry width="50" height="50" relative="1" as="geometry">
                        &#xa;                        &#xa;                        &#xa;                        &#xa;                        &#xa;                        &#xa;                        &#xa;                        &#xa;                        &#xa;                        &#xa;                        &#xa;                        &#xa;                        &#xa;&#xa;&#xa;&#xa;&#xa;&#xa;&#xa;&#xa;&#xa;&#xa;&#xa;&#xa;&#xa;
                        <mxPoint x="520" y="540" as="sourcePoint"/>
                        &#xa;                        &#xa;                        &#xa;                        &#xa;                        &#xa;                        &#xa;                        &#xa;                        &#xa;                        &#xa;                        &#xa;                        &#xa;                        &#xa;                        &#xa;&#xa;&#xa;&#xa;&#xa;&#xa;&#xa;&#xa;&#xa;&#xa;&#xa;&#xa;&#xa;
                        <mxPoint x="570" y="490" as="targetPoint"/>
                        &#xa;                        &#xa;                        &#xa;                        &#xa;                        &#xa;                        &#xa;                        &#xa;                        &#xa;                        &#xa;                        &#xa;                        &#xa;                        &#xa;                        &#xa;&#xa;&#xa;&#xa;&#xa;&#xa;&#xa;&#xa;&#xa;&#xa;&#xa;&#xa;&#xa;
                    </mxGeometry>
                    &#xa;                    &#xa;                    &#xa;                    &#xa;                    &#xa;                    &#xa;                    &#xa;                    &#xa;                    &#xa;                    &#xa;                    &#xa;                    &#xa;                    &#xa;&#xa;&#xa;&#xa;&#xa;&#xa;&#xa;&#xa;&#xa;&#xa;&#xa;&#xa;&#xa;
                </mxCell>
                &#xa;                &#xa;                &#xa;                &#xa;                &#xa;                &#xa;                &#xa;                &#xa;                &#xa;                &#xa;                &#xa;                &#xa;                &#xa;&#xa;&#xa;&#xa;&#xa;&#xa;&#xa;&#xa;&#xa;&#xa;&#xa;&#xa;&#xa;
                <mxCell id="BL-3MxqhHcGCgGN_yfDU-13" value="" style="endArrow=classic;html=1;exitX=0.5;exitY=0;exitDx=0;exitDy=0;entryX=0.5;entryY=1;entryDx=0;entryDy=0;endFill=1;" parent="BL-3MxqhHcGCgGN_yfDU-1" source="BL-3MxqhHcGCgGN_yfDU-5" target="BL-3MxqhHcGCgGN_yfDU-4" edge="1">
                    &#xa;                    &#xa;                    &#xa;                    &#xa;                    &#xa;                    &#xa;                    &#xa;                    &#xa;                    &#xa;                    &#xa;                    &#xa;                    &#xa;                    &#xa;&#xa;&#xa;&#xa;&#xa;&#xa;&#xa;&#xa;&#xa;&#xa;&#xa;&#xa;&#xa;
                    <mxGeometry width="50" height="50" relative="1" as="geometry">
                        &#xa;                        &#xa;                        &#xa;                        &#xa;                        &#xa;                        &#xa;                        &#xa;                        &#xa;                        &#xa;                        &#xa;                        &#xa;                        &#xa;                        &#xa;&#xa;&#xa;&#xa;&#xa;&#xa;&#xa;&#xa;&#xa;&#xa;&#xa;&#xa;&#xa;
                        <mxPoint x="600" y="540" as="sourcePoint"/>
                        &#xa;                        &#xa;                        &#xa;                        &#xa;                        &#xa;                        &#xa;                        &#xa;                        &#xa;                        &#xa;                        &#xa;                        &#xa;                        &#xa;                        &#xa;&#xa;&#xa;&#xa;&#xa;&#xa;&#xa;&#xa;&#xa;&#xa;&#xa;&#xa;&#xa;
                        <mxPoint x="650" y="490" as="targetPoint"/>
                        &#xa;                        &#xa;                        &#xa;                        &#xa;                        &#xa;                        &#xa;                        &#xa;                        &#xa;                        &#xa;                        &#xa;                        &#xa;                        &#xa;                        &#xa;&#xa;&#xa;&#xa;&#xa;&#xa;&#xa;&#xa;&#xa;&#xa;&#xa;&#xa;&#xa;
                    </mxGeometry>
                    &#xa;                    &#xa;                    &#xa;                    &#xa;                    &#xa;                    &#xa;                    &#xa;                    &#xa;                    &#xa;                    &#xa;                    &#xa;                    &#xa;                    &#xa;&#xa;&#xa;&#xa;&#xa;&#xa;&#xa;&#xa;&#xa;&#xa;&#xa;&#xa;&#xa;
                </mxCell>
                &#xa;                &#xa;                &#xa;                &#xa;                &#xa;                &#xa;                &#xa;                &#xa;                &#xa;                &#xa;                &#xa;                &#xa;                &#xa;&#xa;&#xa;&#xa;&#xa;&#xa;&#xa;&#xa;&#xa;&#xa;&#xa;&#xa;&#xa;
                <mxCell id="BL-3MxqhHcGCgGN_yfDU-17" value="" style="endArrow=classic;html=1;exitX=0.25;exitY=1;exitDx=0;exitDy=0;entryX=1;entryY=0;entryDx=0;entryDy=0;endFill=1;" parent="BL-3MxqhHcGCgGN_yfDU-1" source="BL-3MxqhHcGCgGN_yfDU-7" target="BL-3MxqhHcGCgGN_yfDU-6" edge="1">
                    &#xa;                    &#xa;                    &#xa;                    &#xa;                    &#xa;                    &#xa;                    &#xa;                    &#xa;                    &#xa;                    &#xa;                    &#xa;                    &#xa;                    &#xa;&#xa;&#xa;&#xa;&#xa;&#xa;&#xa;&#xa;&#xa;&#xa;&#xa;&#xa;&#xa;
                    <mxGeometry width="50" height="50" relative="1" as="geometry">
                        &#xa;                        &#xa;                        &#xa;                        &#xa;                        &#xa;                        &#xa;                        &#xa;                        &#xa;                        &#xa;                        &#xa;                        &#xa;                        &#xa;                        &#xa;&#xa;&#xa;&#xa;&#xa;&#xa;&#xa;&#xa;&#xa;&#xa;&#xa;&#xa;&#xa;
                        <mxPoint x="440" y="580" as="sourcePoint"/>
                        &#xa;                        &#xa;                        &#xa;                        &#xa;                        &#xa;                        &#xa;                        &#xa;                        &#xa;                        &#xa;                        &#xa;                        &#xa;                        &#xa;                        &#xa;&#xa;&#xa;&#xa;&#xa;&#xa;&#xa;&#xa;&#xa;&#xa;&#xa;&#xa;&#xa;
                        <mxPoint x="490" y="530" as="targetPoint"/>
                        &#xa;                        &#xa;                        &#xa;                        &#xa;                        &#xa;                        &#xa;                        &#xa;                        &#xa;                        &#xa;                        &#xa;                        &#xa;                        &#xa;                        &#xa;&#xa;&#xa;&#xa;&#xa;&#xa;&#xa;&#xa;&#xa;&#xa;&#xa;&#xa;&#xa;
                    </mxGeometry>
                    &#xa;                    &#xa;                    &#xa;                    &#xa;                    &#xa;                    &#xa;                    &#xa;                    &#xa;                    &#xa;                    &#xa;                    &#xa;                    &#xa;                    &#xa;&#xa;&#xa;&#xa;&#xa;&#xa;&#xa;&#xa;&#xa;&#xa;&#xa;&#xa;&#xa;
                </mxCell>
                &#xa;                &#xa;                &#xa;                &#xa;                &#xa;                &#xa;                &#xa;                &#xa;                &#xa;                &#xa;                &#xa;                &#xa;                &#xa;&#xa;&#xa;&#xa;&#xa;&#xa;&#xa;&#xa;&#xa;&#xa;&#xa;&#xa;&#xa;
                <mxCell id="BL-3MxqhHcGCgGN_yfDU-20" value="&lt;div&gt;UserEntity&lt;/div&gt;" style="rounded=0;whiteSpace=wrap;html=1;" parent="BL-3MxqhHcGCgGN_yfDU-1" vertex="1">
                    &#xa;                    &#xa;                    &#xa;                    &#xa;                    &#xa;                    &#xa;                    &#xa;                    &#xa;                    &#xa;                    &#xa;                    &#xa;                    &#xa;                    &#xa;&#xa;&#xa;&#xa;&#xa;&#xa;&#xa;&#xa;&#xa;&#xa;&#xa;&#xa;&#xa;
                    <mxGeometry x="400" y="280" width="80" height="40" as="geometry"/>
                    &#xa;                    &#xa;                    &#xa;                    &#xa;                    &#xa;                    &#xa;                    &#xa;                    &#xa;                    &#xa;                    &#xa;                    &#xa;                    &#xa;                    &#xa;&#xa;&#xa;&#xa;&#xa;&#xa;&#xa;&#xa;&#xa;&#xa;&#xa;&#xa;&#xa;
                </mxCell>
                &#xa;                &#xa;                &#xa;                &#xa;                &#xa;                &#xa;                &#xa;                &#xa;                &#xa;                &#xa;                &#xa;                &#xa;                &#xa;&#xa;&#xa;&#xa;&#xa;&#xa;&#xa;&#xa;&#xa;&#xa;&#xa;&#xa;&#xa;
                <mxCell id="BL-3MxqhHcGCgGN_yfDU-23" value="&lt;div&gt;OrderEntity&lt;/div&gt;" style="rounded=0;whiteSpace=wrap;html=1;" parent="BL-3MxqhHcGCgGN_yfDU-1" vertex="1">
                    &#xa;                    &#xa;                    &#xa;                    &#xa;                    &#xa;                    &#xa;                    &#xa;                    &#xa;                    &#xa;                    &#xa;                    &#xa;                    &#xa;                    &#xa;&#xa;&#xa;&#xa;&#xa;&#xa;&#xa;&#xa;&#xa;&#xa;&#xa;&#xa;&#xa;
                    <mxGeometry x="400" y="340" width="80" height="40" as="geometry"/>
                    &#xa;                    &#xa;                    &#xa;                    &#xa;                    &#xa;                    &#xa;                    &#xa;                    &#xa;                    &#xa;                    &#xa;                    &#xa;                    &#xa;                    &#xa;&#xa;&#xa;&#xa;&#xa;&#xa;&#xa;&#xa;&#xa;&#xa;&#xa;&#xa;&#xa;
                </mxCell>
                &#xa;                &#xa;                &#xa;                &#xa;                &#xa;                &#xa;                &#xa;                &#xa;                &#xa;                &#xa;                &#xa;                &#xa;                &#xa;&#xa;&#xa;&#xa;&#xa;&#xa;&#xa;&#xa;&#xa;&#xa;&#xa;&#xa;&#xa;
                <mxCell id="BL-3MxqhHcGCgGN_yfDU-24" value="" style="endArrow=classic;html=1;exitX=1;exitY=0.5;exitDx=0;exitDy=0;entryX=0;entryY=0.5;entryDx=0;entryDy=0;endFill=1;" parent="BL-3MxqhHcGCgGN_yfDU-1" source="BL-3MxqhHcGCgGN_yfDU-3" target="BL-3MxqhHcGCgGN_yfDU-20" edge="1">
                    &#xa;                    &#xa;                    &#xa;                    &#xa;                    &#xa;                    &#xa;                    &#xa;                    &#xa;                    &#xa;                    &#xa;                    &#xa;                    &#xa;                    &#xa;&#xa;&#xa;&#xa;&#xa;&#xa;&#xa;&#xa;&#xa;&#xa;&#xa;&#xa;&#xa;
                    <mxGeometry width="50" height="50" relative="1" as="geometry">
                        &#xa;                        &#xa;                        &#xa;                        &#xa;                        &#xa;                        &#xa;                        &#xa;                        &#xa;                        &#xa;                        &#xa;                        &#xa;                        &#xa;                        &#xa;&#xa;&#xa;&#xa;&#xa;&#xa;&#xa;&#xa;&#xa;&#xa;&#xa;&#xa;&#xa;
                        <mxPoint x="400" y="540" as="sourcePoint"/>
                        &#xa;                        &#xa;                        &#xa;                        &#xa;                        &#xa;                        &#xa;                        &#xa;                        &#xa;                        &#xa;                        &#xa;                        &#xa;                        &#xa;                        &#xa;&#xa;&#xa;&#xa;&#xa;&#xa;&#xa;&#xa;&#xa;&#xa;&#xa;&#xa;&#xa;
                        <mxPoint x="450" y="490" as="targetPoint"/>
                        &#xa;                        &#xa;                        &#xa;                        &#xa;                        &#xa;                        &#xa;                        &#xa;                        &#xa;                        &#xa;                        &#xa;                        &#xa;                        &#xa;                        &#xa;&#xa;&#xa;&#xa;&#xa;&#xa;&#xa;&#xa;&#xa;&#xa;&#xa;&#xa;&#xa;
                    </mxGeometry>
                    &#xa;                    &#xa;                    &#xa;                    &#xa;                    &#xa;                    &#xa;                    &#xa;                    &#xa;                    &#xa;                    &#xa;                    &#xa;                    &#xa;                    &#xa;&#xa;&#xa;&#xa;&#xa;&#xa;&#xa;&#xa;&#xa;&#xa;&#xa;&#xa;&#xa;
                </mxCell>
                &#xa;                &#xa;                &#xa;                &#xa;                &#xa;                &#xa;                &#xa;                &#xa;                &#xa;                &#xa;                &#xa;                &#xa;                &#xa;&#xa;&#xa;&#xa;&#xa;&#xa;&#xa;&#xa;&#xa;&#xa;&#xa;&#xa;&#xa;
                <mxCell id="BL-3MxqhHcGCgGN_yfDU-25" value="" style="endArrow=classic;html=1;entryX=0;entryY=0.75;entryDx=0;entryDy=0;endFill=1;" parent="BL-3MxqhHcGCgGN_yfDU-1" target="BL-3MxqhHcGCgGN_yfDU-20" edge="1">
                    &#xa;                    &#xa;                    &#xa;                    &#xa;                    &#xa;                    &#xa;                    &#xa;                    &#xa;                    &#xa;                    &#xa;                    &#xa;                    &#xa;                    &#xa;&#xa;&#xa;&#xa;&#xa;&#xa;&#xa;&#xa;&#xa;&#xa;&#xa;&#xa;&#xa;
                    <mxGeometry width="50" height="50" relative="1" as="geometry">
                        &#xa;                        &#xa;                        &#xa;                        &#xa;                        &#xa;                        &#xa;                        &#xa;                        &#xa;                        &#xa;                        &#xa;                        &#xa;                        &#xa;                        &#xa;&#xa;&#xa;&#xa;&#xa;&#xa;&#xa;&#xa;&#xa;&#xa;&#xa;&#xa;&#xa;
                        <mxPoint x="360" y="400" as="sourcePoint"/>
                        &#xa;                        &#xa;                        &#xa;                        &#xa;                        &#xa;                        &#xa;                        &#xa;                        &#xa;                        &#xa;                        &#xa;                        &#xa;                        &#xa;                        &#xa;&#xa;&#xa;&#xa;&#xa;&#xa;&#xa;&#xa;&#xa;&#xa;&#xa;&#xa;&#xa;
                        <mxPoint x="410" y="350" as="targetPoint"/>
                        &#xa;                        &#xa;                        &#xa;                        &#xa;                        &#xa;                        &#xa;                        &#xa;                        &#xa;                        &#xa;                        &#xa;                        &#xa;                        &#xa;                        &#xa;&#xa;&#xa;&#xa;&#xa;&#xa;&#xa;&#xa;&#xa;&#xa;&#xa;&#xa;&#xa;
                    </mxGeometry>
                    &#xa;                    &#xa;                    &#xa;                    &#xa;                    &#xa;                    &#xa;                    &#xa;                    &#xa;                    &#xa;                    &#xa;                    &#xa;                    &#xa;                    &#xa;&#xa;&#xa;&#xa;&#xa;&#xa;&#xa;&#xa;&#xa;&#xa;&#xa;&#xa;&#xa;
                </mxCell>
                &#xa;                &#xa;                &#xa;                &#xa;                &#xa;                &#xa;                &#xa;                &#xa;                &#xa;                &#xa;                &#xa;                &#xa;                &#xa;&#xa;&#xa;&#xa;&#xa;&#xa;&#xa;&#xa;&#xa;&#xa;&#xa;&#xa;&#xa;
                <mxCell id="BL-3MxqhHcGCgGN_yfDU-26" value="&lt;div&gt;UserEntity&lt;/div&gt;" style="rounded=0;whiteSpace=wrap;html=1;" parent="BL-3MxqhHcGCgGN_yfDU-1" vertex="1">
                    &#xa;                    &#xa;                    &#xa;                    &#xa;                    &#xa;                    &#xa;                    &#xa;                    &#xa;                    &#xa;                    &#xa;                    &#xa;                    &#xa;                    &#xa;&#xa;&#xa;&#xa;&#xa;&#xa;&#xa;&#xa;&#xa;&#xa;&#xa;&#xa;&#xa;
                    <mxGeometry x="400" y="680" width="80" height="40" as="geometry"/>
                    &#xa;                    &#xa;                    &#xa;                    &#xa;                    &#xa;                    &#xa;                    &#xa;                    &#xa;                    &#xa;                    &#xa;                    &#xa;                    &#xa;                    &#xa;&#xa;&#xa;&#xa;&#xa;&#xa;&#xa;&#xa;&#xa;&#xa;&#xa;&#xa;&#xa;
                </mxCell>
                &#xa;                &#xa;                &#xa;                &#xa;                &#xa;                &#xa;                &#xa;                &#xa;                &#xa;                &#xa;                &#xa;                &#xa;                &#xa;&#xa;&#xa;&#xa;&#xa;&#xa;&#xa;&#xa;&#xa;&#xa;&#xa;&#xa;&#xa;
                <mxCell id="BL-3MxqhHcGCgGN_yfDU-27" value="&lt;div&gt;OrderEntity&lt;/div&gt;" style="rounded=0;whiteSpace=wrap;html=1;" parent="BL-3MxqhHcGCgGN_yfDU-1" vertex="1">
                    &#xa;                    &#xa;                    &#xa;                    &#xa;                    &#xa;                    &#xa;                    &#xa;                    &#xa;                    &#xa;                    &#xa;                    &#xa;                    &#xa;                    &#xa;&#xa;&#xa;&#xa;&#xa;&#xa;&#xa;&#xa;&#xa;&#xa;&#xa;&#xa;&#xa;
                    <mxGeometry x="400" y="740" width="80" height="40" as="geometry"/>
                    &#xa;                    &#xa;                    &#xa;                    &#xa;                    &#xa;                    &#xa;                    &#xa;                    &#xa;                    &#xa;                    &#xa;                    &#xa;                    &#xa;                    &#xa;&#xa;&#xa;&#xa;&#xa;&#xa;&#xa;&#xa;&#xa;&#xa;&#xa;&#xa;&#xa;
                </mxCell>
                &#xa;                &#xa;                &#xa;                &#xa;                &#xa;                &#xa;                &#xa;                &#xa;                &#xa;                &#xa;                &#xa;                &#xa;                &#xa;&#xa;&#xa;&#xa;&#xa;&#xa;&#xa;&#xa;&#xa;&#xa;&#xa;&#xa;&#xa;
                <mxCell id="BL-3MxqhHcGCgGN_yfDU-28" value="&lt;div&gt;IOrderMicroserviceRepo&lt;br&gt;getOrderList&lt;br&gt;&lt;/div&gt;" style="rounded=0;whiteSpace=wrap;html=1;" parent="BL-3MxqhHcGCgGN_yfDU-1" vertex="1">
                    &#xa;                    &#xa;                    &#xa;                    &#xa;                    &#xa;                    &#xa;                    &#xa;                    &#xa;                    &#xa;                    &#xa;                    &#xa;                    &#xa;                    &#xa;&#xa;&#xa;&#xa;&#xa;&#xa;&#xa;&#xa;&#xa;&#xa;&#xa;&#xa;&#xa;
                    <mxGeometry x="520" y="680" width="160" height="80" as="geometry"/>
                    &#xa;                    &#xa;                    &#xa;                    &#xa;                    &#xa;                    &#xa;                    &#xa;                    &#xa;                    &#xa;                    &#xa;                    &#xa;                    &#xa;                    &#xa;&#xa;&#xa;&#xa;&#xa;&#xa;&#xa;&#xa;&#xa;&#xa;&#xa;&#xa;&#xa;
                </mxCell>
                &#xa;                &#xa;                &#xa;                &#xa;                &#xa;                &#xa;                &#xa;                &#xa;                &#xa;                &#xa;                &#xa;                &#xa;                &#xa;&#xa;&#xa;&#xa;&#xa;&#xa;&#xa;&#xa;&#xa;&#xa;&#xa;&#xa;&#xa;
                <mxCell id="BL-3MxqhHcGCgGN_yfDU-29" value="" style="endArrow=classic;html=1;exitX=0.75;exitY=1;exitDx=0;exitDy=0;entryX=0;entryY=0;entryDx=0;entryDy=0;endFill=1;" parent="BL-3MxqhHcGCgGN_yfDU-1" source="BL-3MxqhHcGCgGN_yfDU-7" target="BL-3MxqhHcGCgGN_yfDU-28" edge="1">
                    &#xa;                    &#xa;                    &#xa;                    &#xa;                    &#xa;                    &#xa;                    &#xa;                    &#xa;                    &#xa;                    &#xa;                    &#xa;                    &#xa;                    &#xa;&#xa;&#xa;&#xa;&#xa;&#xa;&#xa;&#xa;&#xa;&#xa;&#xa;&#xa;&#xa;
                    <mxGeometry width="50" height="50" relative="1" as="geometry">
                        &#xa;                        &#xa;                        &#xa;                        &#xa;                        &#xa;                        &#xa;                        &#xa;                        &#xa;                        &#xa;                        &#xa;                        &#xa;                        &#xa;                        &#xa;&#xa;&#xa;&#xa;&#xa;&#xa;&#xa;&#xa;&#xa;&#xa;&#xa;&#xa;&#xa;
                        <mxPoint x="560" y="580" as="sourcePoint"/>
                        &#xa;                        &#xa;                        &#xa;                        &#xa;                        &#xa;                        &#xa;                        &#xa;                        &#xa;                        &#xa;                        &#xa;                        &#xa;                        &#xa;                        &#xa;&#xa;&#xa;&#xa;&#xa;&#xa;&#xa;&#xa;&#xa;&#xa;&#xa;&#xa;&#xa;
                        <mxPoint x="610" y="530" as="targetPoint"/>
                        &#xa;                        &#xa;                        &#xa;                        &#xa;                        &#xa;                        &#xa;                        &#xa;                        &#xa;                        &#xa;                        &#xa;                        &#xa;                        &#xa;                        &#xa;&#xa;&#xa;&#xa;&#xa;&#xa;&#xa;&#xa;&#xa;&#xa;&#xa;&#xa;&#xa;
                    </mxGeometry>
                    &#xa;                    &#xa;                    &#xa;                    &#xa;                    &#xa;                    &#xa;                    &#xa;                    &#xa;                    &#xa;                    &#xa;                    &#xa;                    &#xa;                    &#xa;&#xa;&#xa;&#xa;&#xa;&#xa;&#xa;&#xa;&#xa;&#xa;&#xa;&#xa;&#xa;
                </mxCell>
                &#xa;                &#xa;                &#xa;                &#xa;                &#xa;                &#xa;                &#xa;                &#xa;                &#xa;                &#xa;                &#xa;                &#xa;                &#xa;&#xa;&#xa;&#xa;&#xa;&#xa;&#xa;&#xa;&#xa;&#xa;&#xa;&#xa;&#xa;
                <mxCell id="KBWLVSeDKseEW-vNfL74-0" value="" style="endArrow=none;html=1;entryX=-0.019;entryY=0.35;entryDx=0;entryDy=0;exitX=1;exitY=0.25;exitDx=0;exitDy=0;startArrow=classic;startFill=1;entryPerimeter=0;" edge="1" parent="BL-3MxqhHcGCgGN_yfDU-1" source="BL-3MxqhHcGCgGN_yfDU-20" target="BL-3MxqhHcGCgGN_yfDU-4">
                    &#xa;                    &#xa;                    &#xa;                    &#xa;                    &#xa;                    &#xa;                    &#xa;                    &#xa;                    &#xa;                    &#xa;                    &#xa;                    &#xa;                    &#xa;&#xa;&#xa;&#xa;&#xa;&#xa;&#xa;&#xa;&#xa;&#xa;&#xa;&#xa;&#xa;
                    <mxGeometry width="50" height="50" relative="1" as="geometry">
                        &#xa;                        &#xa;                        &#xa;                        &#xa;                        &#xa;                        &#xa;                        &#xa;                        &#xa;                        &#xa;                        &#xa;                        &#xa;                        &#xa;                        &#xa;&#xa;&#xa;&#xa;&#xa;&#xa;&#xa;&#xa;&#xa;&#xa;&#xa;&#xa;&#xa;
                        <mxPoint x="400" y="280" as="sourcePoint"/>
                        &#xa;                        &#xa;                        &#xa;                        &#xa;                        &#xa;                        &#xa;                        &#xa;                        &#xa;                        &#xa;                        &#xa;                        &#xa;                        &#xa;                        &#xa;&#xa;&#xa;&#xa;&#xa;&#xa;&#xa;&#xa;&#xa;&#xa;&#xa;&#xa;&#xa;
                        <mxPoint x="450" y="230" as="targetPoint"/>
                        &#xa;                        &#xa;                        &#xa;                        &#xa;                        &#xa;                        &#xa;                        &#xa;                        &#xa;                        &#xa;                        &#xa;                        &#xa;                        &#xa;                        &#xa;&#xa;&#xa;&#xa;&#xa;&#xa;&#xa;&#xa;&#xa;&#xa;&#xa;&#xa;&#xa;
                    </mxGeometry>
                    &#xa;                    &#xa;                    &#xa;                    &#xa;                    &#xa;                    &#xa;                    &#xa;                    &#xa;                    &#xa;                    &#xa;                    &#xa;                    &#xa;                    &#xa;&#xa;&#xa;&#xa;&#xa;&#xa;&#xa;&#xa;&#xa;&#xa;&#xa;&#xa;&#xa;
                </mxCell>
                &#xa;                &#xa;                &#xa;                &#xa;                &#xa;                &#xa;                &#xa;                &#xa;                &#xa;                &#xa;                &#xa;                &#xa;                &#xa;&#xa;&#xa;&#xa;&#xa;&#xa;&#xa;&#xa;&#xa;&#xa;&#xa;&#xa;&#xa;
                <mxCell id="KBWLVSeDKseEW-vNfL74-1" value="" style="endArrow=none;html=1;entryX=0;entryY=0.75;entryDx=0;entryDy=0;exitX=1;exitY=0;exitDx=0;exitDy=0;startArrow=classic;startFill=1;" edge="1" parent="BL-3MxqhHcGCgGN_yfDU-1" source="BL-3MxqhHcGCgGN_yfDU-23" target="BL-3MxqhHcGCgGN_yfDU-4">
                    &#xa;                    &#xa;                    &#xa;                    &#xa;                    &#xa;                    &#xa;                    &#xa;                    &#xa;                    &#xa;                    &#xa;                    &#xa;                    &#xa;                    &#xa;&#xa;&#xa;&#xa;&#xa;&#xa;&#xa;&#xa;&#xa;&#xa;&#xa;&#xa;&#xa;
                    <mxGeometry width="50" height="50" relative="1" as="geometry">
                        &#xa;                        &#xa;                        &#xa;                        &#xa;                        &#xa;                        &#xa;                        &#xa;                        &#xa;                        &#xa;                        &#xa;                        &#xa;                        &#xa;                        &#xa;&#xa;&#xa;&#xa;&#xa;&#xa;&#xa;&#xa;&#xa;&#xa;&#xa;&#xa;&#xa;
                        <mxPoint x="400" y="280" as="sourcePoint"/>
                        &#xa;                        &#xa;                        &#xa;                        &#xa;                        &#xa;                        &#xa;                        &#xa;                        &#xa;                        &#xa;                        &#xa;                        &#xa;                        &#xa;                        &#xa;&#xa;&#xa;&#xa;&#xa;&#xa;&#xa;&#xa;&#xa;&#xa;&#xa;&#xa;&#xa;
                        <mxPoint x="450" y="230" as="targetPoint"/>
                        &#xa;                        &#xa;                        &#xa;                        &#xa;                        &#xa;                        &#xa;                        &#xa;                        &#xa;                        &#xa;                        &#xa;                        &#xa;                        &#xa;                        &#xa;&#xa;&#xa;&#xa;&#xa;&#xa;&#xa;&#xa;&#xa;&#xa;&#xa;&#xa;&#xa;
                    </mxGeometry>
                    &#xa;                    &#xa;                    &#xa;                    &#xa;                    &#xa;                    &#xa;                    &#xa;                    &#xa;                    &#xa;                    &#xa;                    &#xa;                    &#xa;                    &#xa;&#xa;&#xa;&#xa;&#xa;&#xa;&#xa;&#xa;&#xa;&#xa;&#xa;&#xa;&#xa;
                </mxCell>
                &#xa;                &#xa;                &#xa;                &#xa;                &#xa;                &#xa;                &#xa;                &#xa;                &#xa;                &#xa;                &#xa;                &#xa;                &#xa;&#xa;&#xa;&#xa;&#xa;&#xa;&#xa;&#xa;&#xa;&#xa;&#xa;&#xa;&#xa;
                <mxCell id="KBWLVSeDKseEW-vNfL74-2" value="" style="endArrow=none;html=1;entryX=0;entryY=0.25;entryDx=0;entryDy=0;exitX=1;exitY=0.5;exitDx=0;exitDy=0;startArrow=classic;startFill=1;" edge="1" parent="BL-3MxqhHcGCgGN_yfDU-1" source="BL-3MxqhHcGCgGN_yfDU-20" target="BL-3MxqhHcGCgGN_yfDU-5">
                    &#xa;                    &#xa;                    &#xa;                    &#xa;                    &#xa;                    &#xa;                    &#xa;                    &#xa;                    &#xa;                    &#xa;                    &#xa;                    &#xa;                    &#xa;&#xa;&#xa;&#xa;&#xa;&#xa;&#xa;&#xa;&#xa;&#xa;&#xa;&#xa;&#xa;
                    <mxGeometry width="50" height="50" relative="1" as="geometry">
                        &#xa;                        &#xa;                        &#xa;                        &#xa;                        &#xa;                        &#xa;                        &#xa;                        &#xa;                        &#xa;                        &#xa;                        &#xa;                        &#xa;                        &#xa;&#xa;&#xa;&#xa;&#xa;&#xa;&#xa;&#xa;&#xa;&#xa;&#xa;&#xa;&#xa;
                        <mxPoint x="400" y="280" as="sourcePoint"/>
                        &#xa;                        &#xa;                        &#xa;                        &#xa;                        &#xa;                        &#xa;                        &#xa;                        &#xa;                        &#xa;                        &#xa;                        &#xa;                        &#xa;                        &#xa;&#xa;&#xa;&#xa;&#xa;&#xa;&#xa;&#xa;&#xa;&#xa;&#xa;&#xa;&#xa;
                        <mxPoint x="450" y="230" as="targetPoint"/>
                        &#xa;                        &#xa;                        &#xa;                        &#xa;                        &#xa;                        &#xa;                        &#xa;                        &#xa;                        &#xa;                        &#xa;                        &#xa;                        &#xa;                        &#xa;&#xa;&#xa;&#xa;&#xa;&#xa;&#xa;&#xa;&#xa;&#xa;&#xa;&#xa;&#xa;
                    </mxGeometry>
                    &#xa;                    &#xa;                    &#xa;                    &#xa;                    &#xa;                    &#xa;                    &#xa;                    &#xa;                    &#xa;                    &#xa;                    &#xa;                    &#xa;                    &#xa;&#xa;&#xa;&#xa;&#xa;&#xa;&#xa;&#xa;&#xa;&#xa;&#xa;&#xa;&#xa;
                </mxCell>
                &#xa;                &#xa;                &#xa;                &#xa;                &#xa;                &#xa;                &#xa;                &#xa;                &#xa;                &#xa;                &#xa;                &#xa;                &#xa;&#xa;&#xa;&#xa;&#xa;&#xa;&#xa;&#xa;&#xa;&#xa;&#xa;&#xa;&#xa;
                <mxCell id="KBWLVSeDKseEW-vNfL74-3" value="" style="endArrow=none;html=1;entryX=0;entryY=0.75;entryDx=0;entryDy=0;exitX=1;exitY=0.5;exitDx=0;exitDy=0;startArrow=classic;startFill=1;" edge="1" parent="BL-3MxqhHcGCgGN_yfDU-1" source="BL-3MxqhHcGCgGN_yfDU-23" target="BL-3MxqhHcGCgGN_yfDU-5">
                    &#xa;                    &#xa;                    &#xa;                    &#xa;                    &#xa;                    &#xa;                    &#xa;                    &#xa;                    &#xa;                    &#xa;                    &#xa;                    &#xa;                    &#xa;&#xa;&#xa;&#xa;&#xa;&#xa;&#xa;&#xa;&#xa;&#xa;&#xa;&#xa;&#xa;
                    <mxGeometry width="50" height="50" relative="1" as="geometry">
                        &#xa;                        &#xa;                        &#xa;                        &#xa;                        &#xa;                        &#xa;                        &#xa;                        &#xa;                        &#xa;                        &#xa;                        &#xa;                        &#xa;                        &#xa;&#xa;&#xa;&#xa;&#xa;&#xa;&#xa;&#xa;&#xa;&#xa;&#xa;&#xa;&#xa;
                        <mxPoint x="400" y="280" as="sourcePoint"/>
                        &#xa;                        &#xa;                        &#xa;                        &#xa;                        &#xa;                        &#xa;                        &#xa;                        &#xa;                        &#xa;                        &#xa;                        &#xa;                        &#xa;                        &#xa;&#xa;&#xa;&#xa;&#xa;&#xa;&#xa;&#xa;&#xa;&#xa;&#xa;&#xa;&#xa;
                        <mxPoint x="450" y="230" as="targetPoint"/>
                        &#xa;                        &#xa;                        &#xa;                        &#xa;                        &#xa;                        &#xa;                        &#xa;                        &#xa;                        &#xa;                        &#xa;                        &#xa;                        &#xa;                        &#xa;&#xa;&#xa;&#xa;&#xa;&#xa;&#xa;&#xa;&#xa;&#xa;&#xa;&#xa;&#xa;
                    </mxGeometry>
                    &#xa;                    &#xa;                    &#xa;                    &#xa;                    &#xa;                    &#xa;                    &#xa;                    &#xa;                    &#xa;                    &#xa;                    &#xa;                    &#xa;                    &#xa;&#xa;&#xa;&#xa;&#xa;&#xa;&#xa;&#xa;&#xa;&#xa;&#xa;&#xa;&#xa;
                </mxCell>
                &#xa;                &#xa;                &#xa;                &#xa;                &#xa;                &#xa;                &#xa;                &#xa;                &#xa;                &#xa;                &#xa;                &#xa;                &#xa;&#xa;&#xa;&#xa;&#xa;&#xa;&#xa;&#xa;&#xa;&#xa;&#xa;&#xa;&#xa;
                <mxCell id="KBWLVSeDKseEW-vNfL74-8" value="UserDbRepo&lt;br&gt;getById&lt;br&gt;getList" style="rounded=0;whiteSpace=wrap;html=1;" vertex="1" parent="BL-3MxqhHcGCgGN_yfDU-1">
                    &#xa;                    &#xa;                    &#xa;                    &#xa;                    &#xa;                    &#xa;                    &#xa;                    &#xa;                    &#xa;                    &#xa;                    &#xa;                    &#xa;                    &#xa;&#xa;&#xa;&#xa;&#xa;&#xa;&#xa;&#xa;&#xa;&#xa;&#xa;&#xa;&#xa;
                    <mxGeometry x="200" y="120" width="160" height="80" as="geometry"/>
                    &#xa;                    &#xa;                    &#xa;                    &#xa;                    &#xa;                    &#xa;                    &#xa;                    &#xa;                    &#xa;                    &#xa;                    &#xa;                    &#xa;                    &#xa;&#xa;&#xa;&#xa;&#xa;&#xa;&#xa;&#xa;&#xa;&#xa;&#xa;&#xa;&#xa;
                </mxCell>
                &#xa;                &#xa;                &#xa;                &#xa;                &#xa;                &#xa;                &#xa;                &#xa;                &#xa;                &#xa;                &#xa;                &#xa;                &#xa;&#xa;&#xa;&#xa;&#xa;&#xa;&#xa;&#xa;&#xa;&#xa;&#xa;&#xa;&#xa;
                <mxCell id="KBWLVSeDKseEW-vNfL74-9" value="&lt;div&gt;OrderMonolitDbRepo&lt;br&gt;getOrderListWithUserInfo&lt;br&gt;&lt;/div&gt;" style="rounded=0;whiteSpace=wrap;html=1;" vertex="1" parent="BL-3MxqhHcGCgGN_yfDU-1">
                    &#xa;                    &#xa;                    &#xa;                    &#xa;                    &#xa;                    &#xa;                    &#xa;                    &#xa;                    &#xa;                    &#xa;                    &#xa;                    &#xa;                    &#xa;&#xa;&#xa;&#xa;&#xa;&#xa;&#xa;&#xa;&#xa;&#xa;&#xa;&#xa;&#xa;
                    <mxGeometry x="510" y="120" width="160" height="80" as="geometry"/>
                    &#xa;                    &#xa;                    &#xa;                    &#xa;                    &#xa;                    &#xa;                    &#xa;                    &#xa;                    &#xa;                    &#xa;                    &#xa;                    &#xa;                    &#xa;&#xa;&#xa;&#xa;&#xa;&#xa;&#xa;&#xa;&#xa;&#xa;&#xa;&#xa;&#xa;
                </mxCell>
                &#xa;                &#xa;                &#xa;                &#xa;                &#xa;                &#xa;                &#xa;                &#xa;                &#xa;                &#xa;                &#xa;                &#xa;                &#xa;&#xa;&#xa;&#xa;&#xa;&#xa;&#xa;&#xa;&#xa;&#xa;&#xa;&#xa;&#xa;
                <mxCell id="KBWLVSeDKseEW-vNfL74-10" value="" style="endArrow=none;html=1;exitX=0.5;exitY=0;exitDx=0;exitDy=0;entryX=0.5;entryY=1;entryDx=0;entryDy=0;startArrow=classic;startFill=1;" edge="1" parent="BL-3MxqhHcGCgGN_yfDU-1" source="BL-3MxqhHcGCgGN_yfDU-3" target="KBWLVSeDKseEW-vNfL74-8">
                    &#xa;                    &#xa;                    &#xa;                    &#xa;                    &#xa;                    &#xa;                    &#xa;                    &#xa;                    &#xa;                    &#xa;                    &#xa;                    &#xa;                    &#xa;&#xa;&#xa;&#xa;&#xa;&#xa;&#xa;&#xa;&#xa;&#xa;&#xa;&#xa;&#xa;
                    <mxGeometry width="50" height="50" relative="1" as="geometry">
                        &#xa;                        &#xa;                        &#xa;                        &#xa;                        &#xa;                        &#xa;                        &#xa;                        &#xa;                        &#xa;                        &#xa;                        &#xa;                        &#xa;                        &#xa;&#xa;&#xa;&#xa;&#xa;&#xa;&#xa;&#xa;&#xa;&#xa;&#xa;&#xa;&#xa;
                        <mxPoint x="400" y="280" as="sourcePoint"/>
                        &#xa;                        &#xa;                        &#xa;                        &#xa;                        &#xa;                        &#xa;                        &#xa;                        &#xa;                        &#xa;                        &#xa;                        &#xa;                        &#xa;                        &#xa;&#xa;&#xa;&#xa;&#xa;&#xa;&#xa;&#xa;&#xa;&#xa;&#xa;&#xa;&#xa;
                        <mxPoint x="450" y="230" as="targetPoint"/>
                        &#xa;                        &#xa;                        &#xa;                        &#xa;                        &#xa;                        &#xa;                        &#xa;                        &#xa;                        &#xa;                        &#xa;                        &#xa;                        &#xa;                        &#xa;&#xa;&#xa;&#xa;&#xa;&#xa;&#xa;&#xa;&#xa;&#xa;&#xa;&#xa;&#xa;
                    </mxGeometry>
                    &#xa;                    &#xa;                    &#xa;                    &#xa;                    &#xa;                    &#xa;                    &#xa;                    &#xa;                    &#xa;                    &#xa;                    &#xa;                    &#xa;                    &#xa;&#xa;&#xa;&#xa;&#xa;&#xa;&#xa;&#xa;&#xa;&#xa;&#xa;&#xa;&#xa;
                </mxCell>
                &#xa;                &#xa;                &#xa;                &#xa;                &#xa;                &#xa;                &#xa;                &#xa;                &#xa;                &#xa;                &#xa;                &#xa;                &#xa;&#xa;&#xa;&#xa;&#xa;&#xa;&#xa;&#xa;&#xa;&#xa;&#xa;&#xa;&#xa;
                <mxCell id="KBWLVSeDKseEW-vNfL74-11" value="" style="endArrow=none;html=1;exitX=0.5;exitY=0;exitDx=0;exitDy=0;endFill=0;startArrow=classic;startFill=1;" edge="1" parent="BL-3MxqhHcGCgGN_yfDU-1" source="BL-3MxqhHcGCgGN_yfDU-4">
                    &#xa;                    &#xa;                    &#xa;                    &#xa;                    &#xa;                    &#xa;                    &#xa;                    &#xa;                    &#xa;                    &#xa;                    &#xa;                    &#xa;                    &#xa;&#xa;&#xa;&#xa;&#xa;&#xa;&#xa;&#xa;&#xa;&#xa;&#xa;&#xa;&#xa;
                    <mxGeometry width="50" height="50" relative="1" as="geometry">
                        &#xa;                        &#xa;                        &#xa;                        &#xa;                        &#xa;                        &#xa;                        &#xa;                        &#xa;                        &#xa;                        &#xa;                        &#xa;                        &#xa;                        &#xa;&#xa;&#xa;&#xa;&#xa;&#xa;&#xa;&#xa;&#xa;&#xa;&#xa;&#xa;&#xa;
                        <mxPoint x="598" y="230" as="sourcePoint"/>
                        &#xa;                        &#xa;                        &#xa;                        &#xa;                        &#xa;                        &#xa;                        &#xa;                        &#xa;                        &#xa;                        &#xa;                        &#xa;                        &#xa;                        &#xa;&#xa;&#xa;&#xa;&#xa;&#xa;&#xa;&#xa;&#xa;&#xa;&#xa;&#xa;&#xa;
                        <mxPoint x="600" y="200" as="targetPoint"/>
                        &#xa;                        &#xa;                        &#xa;                        &#xa;                        &#xa;                        &#xa;                        &#xa;                        &#xa;                        &#xa;                        &#xa;                        &#xa;                        &#xa;                        &#xa;&#xa;&#xa;&#xa;&#xa;&#xa;&#xa;&#xa;&#xa;&#xa;&#xa;&#xa;&#xa;
                    </mxGeometry>
                    &#xa;                    &#xa;                    &#xa;                    &#xa;                    &#xa;                    &#xa;                    &#xa;                    &#xa;                    &#xa;                    &#xa;                    &#xa;                    &#xa;                    &#xa;&#xa;&#xa;&#xa;&#xa;&#xa;&#xa;&#xa;&#xa;&#xa;&#xa;&#xa;&#xa;
                </mxCell>
                &#xa;                &#xa;                &#xa;                &#xa;                &#xa;                &#xa;                &#xa;                &#xa;                &#xa;                &#xa;                &#xa;                &#xa;                &#xa;&#xa;&#xa;&#xa;&#xa;&#xa;&#xa;&#xa;&#xa;&#xa;&#xa;&#xa;&#xa;
                <mxCell id="KBWLVSeDKseEW-vNfL74-14" value="" style="endArrow=classic;html=1;entryX=1;entryY=0.5;entryDx=0;entryDy=0;endFill=1;" edge="1" parent="BL-3MxqhHcGCgGN_yfDU-1" target="BL-3MxqhHcGCgGN_yfDU-8">
                    &#xa;                    &#xa;                    &#xa;                    &#xa;                    &#xa;                    &#xa;                    &#xa;                    &#xa;                    &#xa;                    &#xa;                    &#xa;                    &#xa;                    &#xa;&#xa;&#xa;&#xa;&#xa;&#xa;&#xa;&#xa;&#xa;&#xa;&#xa;&#xa;&#xa;
                    <mxGeometry width="50" height="50" relative="1" as="geometry">
                        &#xa;                        &#xa;                        &#xa;                        &#xa;                        &#xa;                        &#xa;                        &#xa;                        &#xa;                        &#xa;                        &#xa;                        &#xa;                        &#xa;                        &#xa;&#xa;&#xa;&#xa;&#xa;&#xa;&#xa;&#xa;&#xa;&#xa;&#xa;&#xa;&#xa;
                        <mxPoint x="600" y="120" as="sourcePoint"/>
                        &#xa;                        &#xa;                        &#xa;                        &#xa;                        &#xa;                        &#xa;                        &#xa;                        &#xa;                        &#xa;                        &#xa;                        &#xa;                        &#xa;                        &#xa;&#xa;&#xa;&#xa;&#xa;&#xa;&#xa;&#xa;&#xa;&#xa;&#xa;&#xa;&#xa;
                        <mxPoint x="650" y="70" as="targetPoint"/>
                        &#xa;                        &#xa;                        &#xa;                        &#xa;                        &#xa;                        &#xa;                        &#xa;                        &#xa;                        &#xa;                        &#xa;                        &#xa;                        &#xa;                        &#xa;&#xa;&#xa;&#xa;&#xa;&#xa;&#xa;&#xa;&#xa;&#xa;&#xa;&#xa;&#xa;
                    </mxGeometry>
                    &#xa;                    &#xa;                    &#xa;                    &#xa;                    &#xa;                    &#xa;                    &#xa;                    &#xa;                    &#xa;                    &#xa;                    &#xa;                    &#xa;                    &#xa;&#xa;&#xa;&#xa;&#xa;&#xa;&#xa;&#xa;&#xa;&#xa;&#xa;&#xa;&#xa;
                </mxCell>
                &#xa;                &#xa;                &#xa;                &#xa;                &#xa;                &#xa;                &#xa;                &#xa;                &#xa;                &#xa;                &#xa;                &#xa;                &#xa;&#xa;&#xa;&#xa;&#xa;&#xa;&#xa;&#xa;&#xa;&#xa;&#xa;&#xa;&#xa;
                <mxCell id="KBWLVSeDKseEW-vNfL74-16" value="" style="endArrow=classic;html=1;entryX=0;entryY=0.25;entryDx=0;entryDy=0;endFill=1;" edge="1" parent="BL-3MxqhHcGCgGN_yfDU-1" target="BL-3MxqhHcGCgGN_yfDU-8">
                    &#xa;                    &#xa;                    &#xa;                    &#xa;                    &#xa;                    &#xa;                    &#xa;                    &#xa;                    &#xa;                    &#xa;                    &#xa;                    &#xa;                    &#xa;&#xa;&#xa;&#xa;&#xa;&#xa;&#xa;&#xa;&#xa;&#xa;&#xa;&#xa;&#xa;
                    <mxGeometry width="50" height="50" relative="1" as="geometry">
                        &#xa;                        &#xa;                        &#xa;                        &#xa;                        &#xa;                        &#xa;                        &#xa;                        &#xa;                        &#xa;                        &#xa;                        &#xa;                        &#xa;                        &#xa;&#xa;&#xa;&#xa;&#xa;&#xa;&#xa;&#xa;&#xa;&#xa;&#xa;&#xa;&#xa;
                        <mxPoint x="280" y="120" as="sourcePoint"/>
                        &#xa;                        &#xa;                        &#xa;                        &#xa;                        &#xa;                        &#xa;                        &#xa;                        &#xa;                        &#xa;                        &#xa;                        &#xa;                        &#xa;                        &#xa;&#xa;&#xa;&#xa;&#xa;&#xa;&#xa;&#xa;&#xa;&#xa;&#xa;&#xa;&#xa;
                        <mxPoint x="330" y="70" as="targetPoint"/>
                        &#xa;                        &#xa;                        &#xa;                        &#xa;                        &#xa;                        &#xa;                        &#xa;                        &#xa;                        &#xa;                        &#xa;                        &#xa;                        &#xa;                        &#xa;&#xa;&#xa;&#xa;&#xa;&#xa;&#xa;&#xa;&#xa;&#xa;&#xa;&#xa;&#xa;
                    </mxGeometry>
                    &#xa;                    &#xa;                    &#xa;                    &#xa;                    &#xa;                    &#xa;                    &#xa;                    &#xa;                    &#xa;                    &#xa;                    &#xa;                    &#xa;                    &#xa;&#xa;&#xa;&#xa;&#xa;&#xa;&#xa;&#xa;&#xa;&#xa;&#xa;&#xa;&#xa;
                </mxCell>
                &#xa;                &#xa;                &#xa;                &#xa;                &#xa;                &#xa;                &#xa;                &#xa;                &#xa;                &#xa;                &#xa;                &#xa;                &#xa;&#xa;&#xa;&#xa;&#xa;&#xa;&#xa;&#xa;&#xa;&#xa;&#xa;&#xa;&#xa;
                <mxCell id="KBWLVSeDKseEW-vNfL74-17" value="&lt;div&gt;OrderDbRepo&lt;br&gt;getOrderList&lt;br&gt;&lt;/div&gt;" style="rounded=0;whiteSpace=wrap;html=1;" vertex="1" parent="BL-3MxqhHcGCgGN_yfDU-1">
                    &#xa;                    &#xa;                    &#xa;                    &#xa;                    &#xa;                    &#xa;                    &#xa;                    &#xa;                    &#xa;                    &#xa;                    &#xa;                    &#xa;                    &#xa;&#xa;&#xa;&#xa;&#xa;&#xa;&#xa;&#xa;&#xa;&#xa;&#xa;&#xa;&#xa;
                    <mxGeometry x="520" y="800" width="160" height="80" as="geometry"/>
                    &#xa;                    &#xa;                    &#xa;                    &#xa;                    &#xa;                    &#xa;                    &#xa;                    &#xa;                    &#xa;                    &#xa;                    &#xa;                    &#xa;                    &#xa;&#xa;&#xa;&#xa;&#xa;&#xa;&#xa;&#xa;&#xa;&#xa;&#xa;&#xa;&#xa;
                </mxCell>
                &#xa;                &#xa;                &#xa;                &#xa;                &#xa;                &#xa;                &#xa;                &#xa;                &#xa;                &#xa;                &#xa;                &#xa;                &#xa;&#xa;&#xa;&#xa;&#xa;&#xa;&#xa;&#xa;&#xa;&#xa;&#xa;&#xa;&#xa;
                <mxCell id="KBWLVSeDKseEW-vNfL74-18" value="&lt;div&gt;UserMicrosvcRepo&lt;br&gt;getUsersForReport&lt;br&gt;&lt;/div&gt;" style="rounded=0;whiteSpace=wrap;html=1;" vertex="1" parent="BL-3MxqhHcGCgGN_yfDU-1">
                    &#xa;                    &#xa;                    &#xa;                    &#xa;                    &#xa;                    &#xa;                    &#xa;                    &#xa;                    &#xa;                    &#xa;                    &#xa;                    &#xa;                    &#xa;&#xa;&#xa;&#xa;&#xa;&#xa;&#xa;&#xa;&#xa;&#xa;&#xa;&#xa;&#xa;
                    <mxGeometry x="200" y="800" width="160" height="80" as="geometry"/>
                    &#xa;                    &#xa;                    &#xa;                    &#xa;                    &#xa;                    &#xa;                    &#xa;                    &#xa;                    &#xa;                    &#xa;                    &#xa;                    &#xa;                    &#xa;&#xa;&#xa;&#xa;&#xa;&#xa;&#xa;&#xa;&#xa;&#xa;&#xa;&#xa;&#xa;
                </mxCell>
                &#xa;                &#xa;                &#xa;                &#xa;                &#xa;                &#xa;                &#xa;                &#xa;                &#xa;                &#xa;                &#xa;                &#xa;                &#xa;&#xa;&#xa;&#xa;&#xa;&#xa;&#xa;&#xa;&#xa;&#xa;&#xa;&#xa;&#xa;
            </root>
            &#xa;            &#xa;            &#xa;            &#xa;            &#xa;            &#xa;            &#xa;            &#xa;            &#xa;            &#xa;            &#xa;            &#xa;            &#xa;&#xa;&#xa;&#xa;&#xa;&#xa;&#xa;&#xa;&#xa;&#xa;&#xa;&#xa;&#xa;
        </mxGraphModel>
        &#xa;        &#xa;        &#xa;        &#xa;        &#xa;        &#xa;        &#xa;        &#xa;        &#xa;        &#xa;        &#xa;        &#xa;        &#xa;&#xa;&#xa;&#xa;&#xa;&#xa;&#xa;&#xa;&#xa;&#xa;&#xa;&#xa;&#xa;
    </diagram>
</mxfile>